ISO-10303-21;
HEADER;
/* Generated by software containing ST-Developer
 * from STEP Tools, Inc. (www.steptools.com) 
 */

FILE_DESCRIPTION(
/* description */ (''),
/* implementation_level */ '2;1');

FILE_NAME(
/* name */ 'battery_back.stp',
/* time_stamp */ '2025-05-14T19:43:05+02:00',
/* author */ ('Henrik Hose'),
/* organization */ (''),
/* preprocessor_version */ 'ST-DEVELOPER v19.2',
/* originating_system */ 'Autodesk Inventor 2024',
/* authorisation */ '');

FILE_SCHEMA (('AUTOMOTIVE_DESIGN { 1 0 10303 214 3 1 1 }'));
ENDSEC;

DATA;
#10=MECHANICAL_DESIGN_GEOMETRIC_PRESENTATION_REPRESENTATION('',(#19,#20),
#607);
#11=SHAPE_REPRESENTATION_RELATIONSHIP('SRR','None',#614,#12);
#12=ADVANCED_BREP_SHAPE_REPRESENTATION('',(#13),#606);
#13=MANIFOLD_SOLID_BREP('Solid1',#358);
#14=FACE_BOUND('',#67,.T.);
#15=CYLINDRICAL_SURFACE('',#401,0.499999999999989);
#16=CYLINDRICAL_SURFACE('',#403,0.499999999999999);
#17=CYLINDRICAL_SURFACE('',#404,0.499999999999972);
#18=CYLINDRICAL_SURFACE('',#406,0.499999999999998);
#19=STYLED_ITEM('',(#623),#350);
#20=STYLED_ITEM('',(#623),#13);
#21=CIRCLE('',#387,0.499999999999972);
#22=CIRCLE('',#388,0.499999999999998);
#23=CIRCLE('',#394,0.499999999999989);
#24=CIRCLE('',#395,0.499999999999999);
#25=CIRCLE('',#397,0.499999999999998);
#26=CIRCLE('',#398,0.499999999999972);
#27=CIRCLE('',#399,0.499999999999999);
#28=CIRCLE('',#400,0.499999999999989);
#29=FACE_OUTER_BOUND('',#48,.T.);
#30=FACE_OUTER_BOUND('',#49,.T.);
#31=FACE_OUTER_BOUND('',#50,.T.);
#32=FACE_OUTER_BOUND('',#51,.T.);
#33=FACE_OUTER_BOUND('',#52,.T.);
#34=FACE_OUTER_BOUND('',#53,.T.);
#35=FACE_OUTER_BOUND('',#54,.T.);
#36=FACE_OUTER_BOUND('',#55,.T.);
#37=FACE_OUTER_BOUND('',#56,.T.);
#38=FACE_OUTER_BOUND('',#57,.T.);
#39=FACE_OUTER_BOUND('',#58,.T.);
#40=FACE_OUTER_BOUND('',#59,.T.);
#41=FACE_OUTER_BOUND('',#60,.T.);
#42=FACE_OUTER_BOUND('',#61,.T.);
#43=FACE_OUTER_BOUND('',#62,.T.);
#44=FACE_OUTER_BOUND('',#63,.T.);
#45=FACE_OUTER_BOUND('',#64,.T.);
#46=FACE_OUTER_BOUND('',#65,.T.);
#47=FACE_OUTER_BOUND('',#66,.T.);
#48=EDGE_LOOP('',(#228,#229,#230,#231));
#49=EDGE_LOOP('',(#232,#233,#234,#235));
#50=EDGE_LOOP('',(#236,#237,#238,#239));
#51=EDGE_LOOP('',(#240,#241,#242,#243));
#52=EDGE_LOOP('',(#244,#245,#246,#247));
#53=EDGE_LOOP('',(#248,#249,#250,#251,#252,#253));
#54=EDGE_LOOP('',(#254,#255,#256,#257));
#55=EDGE_LOOP('',(#258,#259,#260,#261,#262,#263,#264,#265));
#56=EDGE_LOOP('',(#266,#267,#268,#269,#270,#271,#272,#273));
#57=EDGE_LOOP('',(#274,#275,#276,#277));
#58=EDGE_LOOP('',(#278,#279,#280,#281,#282,#283));
#59=EDGE_LOOP('',(#284,#285,#286,#287,#288,#289,#290,#291));
#60=EDGE_LOOP('',(#292,#293,#294,#295));
#61=EDGE_LOOP('',(#296,#297,#298,#299));
#62=EDGE_LOOP('',(#300,#301,#302,#303));
#63=EDGE_LOOP('',(#304,#305,#306,#307));
#64=EDGE_LOOP('',(#308,#309,#310,#311));
#65=EDGE_LOOP('',(#312,#313,#314,#315));
#66=EDGE_LOOP('',(#316,#317,#318,#319));
#67=EDGE_LOOP('',(#320,#321,#322,#323));
#68=LINE('',#508,#108);
#69=LINE('',#510,#109);
#70=LINE('',#512,#110);
#71=LINE('',#513,#111);
#72=LINE('',#517,#112);
#73=LINE('',#519,#113);
#74=LINE('',#521,#114);
#75=LINE('',#522,#115);
#76=LINE('',#524,#116);
#77=LINE('',#525,#117);
#78=LINE('',#529,#118);
#79=LINE('',#531,#119);
#80=LINE('',#533,#120);
#81=LINE('',#534,#121);
#82=LINE('',#536,#122);
#83=LINE('',#539,#123);
#84=LINE('',#543,#124);
#85=LINE('',#546,#125);
#86=LINE('',#548,#126);
#87=LINE('',#551,#127);
#88=LINE('',#553,#128);
#89=LINE('',#555,#129);
#90=LINE('',#557,#130);
#91=LINE('',#559,#131);
#92=LINE('',#560,#132);
#93=LINE('',#564,#133);
#94=LINE('',#565,#134);
#95=LINE('',#567,#135);
#96=LINE('',#569,#136);
#97=LINE('',#571,#137);
#98=LINE('',#572,#138);
#99=LINE('',#574,#139);
#100=LINE('',#575,#140);
#101=LINE('',#580,#141);
#102=LINE('',#586,#142);
#103=LINE('',#591,#143);
#104=LINE('',#594,#144);
#105=LINE('',#596,#145);
#106=LINE('',#599,#146);
#107=LINE('',#601,#147);
#108=VECTOR('',#412,10.);
#109=VECTOR('',#413,10.);
#110=VECTOR('',#414,10.);
#111=VECTOR('',#415,10.);
#112=VECTOR('',#418,10.);
#113=VECTOR('',#419,10.);
#114=VECTOR('',#420,10.);
#115=VECTOR('',#421,10.);
#116=VECTOR('',#424,10.);
#117=VECTOR('',#425,10.);
#118=VECTOR('',#428,10.);
#119=VECTOR('',#429,10.);
#120=VECTOR('',#430,10.);
#121=VECTOR('',#431,10.);
#122=VECTOR('',#434,10.);
#123=VECTOR('',#437,10.);
#124=VECTOR('',#440,10.);
#125=VECTOR('',#443,10.);
#126=VECTOR('',#446,10.);
#127=VECTOR('',#449,10.);
#128=VECTOR('',#450,10.);
#129=VECTOR('',#451,10.);
#130=VECTOR('',#452,10.);
#131=VECTOR('',#453,10.);
#132=VECTOR('',#454,10.);
#133=VECTOR('',#457,10.);
#134=VECTOR('',#458,10.);
#135=VECTOR('',#459,10.);
#136=VECTOR('',#460,10.);
#137=VECTOR('',#461,10.);
#138=VECTOR('',#462,10.);
#139=VECTOR('',#465,10.);
#140=VECTOR('',#466,10.);
#141=VECTOR('',#471,10.);
#142=VECTOR('',#478,10.);
#143=VECTOR('',#483,10.);
#144=VECTOR('',#488,10.);
#145=VECTOR('',#491,10.);
#146=VECTOR('',#496,10.);
#147=VECTOR('',#499,10.);
#148=VERTEX_POINT('',#506);
#149=VERTEX_POINT('',#507);
#150=VERTEX_POINT('',#509);
#151=VERTEX_POINT('',#511);
#152=VERTEX_POINT('',#515);
#153=VERTEX_POINT('',#516);
#154=VERTEX_POINT('',#518);
#155=VERTEX_POINT('',#520);
#156=VERTEX_POINT('',#527);
#157=VERTEX_POINT('',#528);
#158=VERTEX_POINT('',#530);
#159=VERTEX_POINT('',#532);
#160=VERTEX_POINT('',#538);
#161=VERTEX_POINT('',#540);
#162=VERTEX_POINT('',#542);
#163=VERTEX_POINT('',#544);
#164=VERTEX_POINT('',#550);
#165=VERTEX_POINT('',#552);
#166=VERTEX_POINT('',#554);
#167=VERTEX_POINT('',#556);
#168=VERTEX_POINT('',#558);
#169=VERTEX_POINT('',#562);
#170=VERTEX_POINT('',#563);
#171=VERTEX_POINT('',#566);
#172=VERTEX_POINT('',#568);
#173=VERTEX_POINT('',#570);
#174=VERTEX_POINT('',#577);
#175=VERTEX_POINT('',#579);
#176=VERTEX_POINT('',#583);
#177=VERTEX_POINT('',#585);
#178=VERTEX_POINT('',#588);
#179=VERTEX_POINT('',#590);
#180=EDGE_CURVE('',#148,#149,#68,.T.);
#181=EDGE_CURVE('',#150,#148,#69,.T.);
#182=EDGE_CURVE('',#151,#150,#70,.T.);
#183=EDGE_CURVE('',#149,#151,#71,.T.);
#184=EDGE_CURVE('',#152,#153,#72,.T.);
#185=EDGE_CURVE('',#154,#152,#73,.T.);
#186=EDGE_CURVE('',#155,#154,#74,.T.);
#187=EDGE_CURVE('',#153,#155,#75,.T.);
#188=EDGE_CURVE('',#153,#148,#76,.T.);
#189=EDGE_CURVE('',#155,#150,#77,.T.);
#190=EDGE_CURVE('',#156,#157,#78,.T.);
#191=EDGE_CURVE('',#156,#158,#79,.T.);
#192=EDGE_CURVE('',#158,#159,#80,.T.);
#193=EDGE_CURVE('',#159,#157,#81,.T.);
#194=EDGE_CURVE('',#149,#152,#82,.T.);
#195=EDGE_CURVE('',#160,#157,#83,.T.);
#196=EDGE_CURVE('',#161,#160,#21,.T.);
#197=EDGE_CURVE('',#162,#161,#84,.T.);
#198=EDGE_CURVE('',#163,#162,#22,.T.);
#199=EDGE_CURVE('',#156,#163,#85,.T.);
#200=EDGE_CURVE('',#154,#151,#86,.T.);
#201=EDGE_CURVE('',#163,#164,#87,.T.);
#202=EDGE_CURVE('',#165,#164,#88,.T.);
#203=EDGE_CURVE('',#166,#165,#89,.T.);
#204=EDGE_CURVE('',#166,#167,#90,.T.);
#205=EDGE_CURVE('',#167,#168,#91,.T.);
#206=EDGE_CURVE('',#158,#168,#92,.T.);
#207=EDGE_CURVE('',#169,#170,#93,.T.);
#208=EDGE_CURVE('',#160,#169,#94,.T.);
#209=EDGE_CURVE('',#159,#171,#95,.T.);
#210=EDGE_CURVE('',#171,#172,#96,.T.);
#211=EDGE_CURVE('',#172,#173,#97,.T.);
#212=EDGE_CURVE('',#173,#170,#98,.T.);
#213=EDGE_CURVE('',#168,#171,#99,.T.);
#214=EDGE_CURVE('',#172,#167,#100,.T.);
#215=EDGE_CURVE('',#174,#166,#23,.T.);
#216=EDGE_CURVE('',#175,#174,#101,.T.);
#217=EDGE_CURVE('',#173,#175,#24,.T.);
#218=EDGE_CURVE('',#164,#176,#25,.T.);
#219=EDGE_CURVE('',#176,#177,#102,.T.);
#220=EDGE_CURVE('',#177,#169,#26,.T.);
#221=EDGE_CURVE('',#170,#178,#27,.T.);
#222=EDGE_CURVE('',#178,#179,#103,.T.);
#223=EDGE_CURVE('',#179,#165,#28,.T.);
#224=EDGE_CURVE('',#174,#179,#104,.T.);
#225=EDGE_CURVE('',#175,#178,#105,.T.);
#226=EDGE_CURVE('',#161,#177,#106,.T.);
#227=EDGE_CURVE('',#162,#176,#107,.T.);
#228=ORIENTED_EDGE('',*,*,#180,.F.);
#229=ORIENTED_EDGE('',*,*,#181,.F.);
#230=ORIENTED_EDGE('',*,*,#182,.F.);
#231=ORIENTED_EDGE('',*,*,#183,.F.);
#232=ORIENTED_EDGE('',*,*,#184,.F.);
#233=ORIENTED_EDGE('',*,*,#185,.F.);
#234=ORIENTED_EDGE('',*,*,#186,.F.);
#235=ORIENTED_EDGE('',*,*,#187,.F.);
#236=ORIENTED_EDGE('',*,*,#181,.T.);
#237=ORIENTED_EDGE('',*,*,#188,.F.);
#238=ORIENTED_EDGE('',*,*,#187,.T.);
#239=ORIENTED_EDGE('',*,*,#189,.T.);
#240=ORIENTED_EDGE('',*,*,#190,.F.);
#241=ORIENTED_EDGE('',*,*,#191,.T.);
#242=ORIENTED_EDGE('',*,*,#192,.T.);
#243=ORIENTED_EDGE('',*,*,#193,.T.);
#244=ORIENTED_EDGE('',*,*,#180,.T.);
#245=ORIENTED_EDGE('',*,*,#194,.T.);
#246=ORIENTED_EDGE('',*,*,#184,.T.);
#247=ORIENTED_EDGE('',*,*,#188,.T.);
#248=ORIENTED_EDGE('',*,*,#190,.T.);
#249=ORIENTED_EDGE('',*,*,#195,.F.);
#250=ORIENTED_EDGE('',*,*,#196,.F.);
#251=ORIENTED_EDGE('',*,*,#197,.F.);
#252=ORIENTED_EDGE('',*,*,#198,.F.);
#253=ORIENTED_EDGE('',*,*,#199,.F.);
#254=ORIENTED_EDGE('',*,*,#183,.T.);
#255=ORIENTED_EDGE('',*,*,#200,.F.);
#256=ORIENTED_EDGE('',*,*,#185,.T.);
#257=ORIENTED_EDGE('',*,*,#194,.F.);
#258=ORIENTED_EDGE('',*,*,#199,.T.);
#259=ORIENTED_EDGE('',*,*,#201,.T.);
#260=ORIENTED_EDGE('',*,*,#202,.F.);
#261=ORIENTED_EDGE('',*,*,#203,.F.);
#262=ORIENTED_EDGE('',*,*,#204,.T.);
#263=ORIENTED_EDGE('',*,*,#205,.T.);
#264=ORIENTED_EDGE('',*,*,#206,.F.);
#265=ORIENTED_EDGE('',*,*,#191,.F.);
#266=ORIENTED_EDGE('',*,*,#207,.F.);
#267=ORIENTED_EDGE('',*,*,#208,.F.);
#268=ORIENTED_EDGE('',*,*,#195,.T.);
#269=ORIENTED_EDGE('',*,*,#193,.F.);
#270=ORIENTED_EDGE('',*,*,#209,.T.);
#271=ORIENTED_EDGE('',*,*,#210,.T.);
#272=ORIENTED_EDGE('',*,*,#211,.T.);
#273=ORIENTED_EDGE('',*,*,#212,.T.);
#274=ORIENTED_EDGE('',*,*,#213,.F.);
#275=ORIENTED_EDGE('',*,*,#205,.F.);
#276=ORIENTED_EDGE('',*,*,#214,.F.);
#277=ORIENTED_EDGE('',*,*,#210,.F.);
#278=ORIENTED_EDGE('',*,*,#214,.T.);
#279=ORIENTED_EDGE('',*,*,#204,.F.);
#280=ORIENTED_EDGE('',*,*,#215,.F.);
#281=ORIENTED_EDGE('',*,*,#216,.F.);
#282=ORIENTED_EDGE('',*,*,#217,.F.);
#283=ORIENTED_EDGE('',*,*,#211,.F.);
#284=ORIENTED_EDGE('',*,*,#202,.T.);
#285=ORIENTED_EDGE('',*,*,#218,.T.);
#286=ORIENTED_EDGE('',*,*,#219,.T.);
#287=ORIENTED_EDGE('',*,*,#220,.T.);
#288=ORIENTED_EDGE('',*,*,#207,.T.);
#289=ORIENTED_EDGE('',*,*,#221,.T.);
#290=ORIENTED_EDGE('',*,*,#222,.T.);
#291=ORIENTED_EDGE('',*,*,#223,.T.);
#292=ORIENTED_EDGE('',*,*,#215,.T.);
#293=ORIENTED_EDGE('',*,*,#203,.T.);
#294=ORIENTED_EDGE('',*,*,#223,.F.);
#295=ORIENTED_EDGE('',*,*,#224,.F.);
#296=ORIENTED_EDGE('',*,*,#216,.T.);
#297=ORIENTED_EDGE('',*,*,#224,.T.);
#298=ORIENTED_EDGE('',*,*,#222,.F.);
#299=ORIENTED_EDGE('',*,*,#225,.F.);
#300=ORIENTED_EDGE('',*,*,#217,.T.);
#301=ORIENTED_EDGE('',*,*,#225,.T.);
#302=ORIENTED_EDGE('',*,*,#221,.F.);
#303=ORIENTED_EDGE('',*,*,#212,.F.);
#304=ORIENTED_EDGE('',*,*,#196,.T.);
#305=ORIENTED_EDGE('',*,*,#208,.T.);
#306=ORIENTED_EDGE('',*,*,#220,.F.);
#307=ORIENTED_EDGE('',*,*,#226,.F.);
#308=ORIENTED_EDGE('',*,*,#197,.T.);
#309=ORIENTED_EDGE('',*,*,#226,.T.);
#310=ORIENTED_EDGE('',*,*,#219,.F.);
#311=ORIENTED_EDGE('',*,*,#227,.F.);
#312=ORIENTED_EDGE('',*,*,#198,.T.);
#313=ORIENTED_EDGE('',*,*,#227,.T.);
#314=ORIENTED_EDGE('',*,*,#218,.F.);
#315=ORIENTED_EDGE('',*,*,#201,.F.);
#316=ORIENTED_EDGE('',*,*,#206,.T.);
#317=ORIENTED_EDGE('',*,*,#213,.T.);
#318=ORIENTED_EDGE('',*,*,#209,.F.);
#319=ORIENTED_EDGE('',*,*,#192,.F.);
#320=ORIENTED_EDGE('',*,*,#182,.T.);
#321=ORIENTED_EDGE('',*,*,#189,.F.);
#322=ORIENTED_EDGE('',*,*,#186,.T.);
#323=ORIENTED_EDGE('',*,*,#200,.T.);
#324=PLANE('',#381);
#325=PLANE('',#382);
#326=PLANE('',#383);
#327=PLANE('',#384);
#328=PLANE('',#385);
#329=PLANE('',#386);
#330=PLANE('',#389);
#331=PLANE('',#390);
#332=PLANE('',#391);
#333=PLANE('',#392);
#334=PLANE('',#393);
#335=PLANE('',#396);
#336=PLANE('',#402);
#337=PLANE('',#405);
#338=PLANE('',#407);
#339=ADVANCED_FACE('',(#29),#324,.T.);
#340=ADVANCED_FACE('',(#30),#325,.T.);
#341=ADVANCED_FACE('',(#31),#326,.F.);
#342=ADVANCED_FACE('',(#32),#327,.F.);
#343=ADVANCED_FACE('',(#33),#328,.F.);
#344=ADVANCED_FACE('',(#34),#329,.F.);
#345=ADVANCED_FACE('',(#35),#330,.T.);
#346=ADVANCED_FACE('',(#36),#331,.T.);
#347=ADVANCED_FACE('',(#37),#332,.T.);
#348=ADVANCED_FACE('',(#38),#333,.T.);
#349=ADVANCED_FACE('',(#39),#334,.F.);
#350=ADVANCED_FACE('',(#40),#335,.T.);
#351=ADVANCED_FACE('',(#41),#15,.T.);
#352=ADVANCED_FACE('',(#42),#336,.T.);
#353=ADVANCED_FACE('',(#43),#16,.T.);
#354=ADVANCED_FACE('',(#44),#17,.T.);
#355=ADVANCED_FACE('',(#45),#337,.T.);
#356=ADVANCED_FACE('',(#46),#18,.T.);
#357=ADVANCED_FACE('',(#47,#14),#338,.F.);
#358=CLOSED_SHELL('',(#339,#340,#341,#342,#343,#344,#345,#346,#347,#348,
#349,#350,#351,#352,#353,#354,#355,#356,#357));
#359=DERIVED_UNIT_ELEMENT(#362,1.);
#360=DERIVED_UNIT_ELEMENT(#609,-3.);
#361=DIMENSIONAL_EXPONENTS(0.,1.,0.,0.,0.,0.,0.);
#362=(
CONVERSION_BASED_UNIT('gram',#364)
MASS_UNIT()
NAMED_UNIT(#361)
);
#363=(
MASS_UNIT()
NAMED_UNIT(*)
SI_UNIT(.KILO.,.GRAM.)
);
#364=MASS_MEASURE_WITH_UNIT(MASS_MEASURE(0.001),#363);
#365=DERIVED_UNIT((#359,#360));
#366=MEASURE_REPRESENTATION_ITEM('density measure',
POSITIVE_RATIO_MEASURE(1.),#365);
#367=PROPERTY_DEFINITION_REPRESENTATION(#372,#369);
#368=PROPERTY_DEFINITION_REPRESENTATION(#373,#370);
#369=REPRESENTATION('material name',(#371),#606);
#370=REPRESENTATION('density',(#366),#606);
#371=DESCRIPTIVE_REPRESENTATION_ITEM('Generic','Generic');
#372=PROPERTY_DEFINITION('material property','material name',#616);
#373=PROPERTY_DEFINITION('material property','density of part',#616);
#374=DATE_TIME_ROLE('creation_date');
#375=APPLIED_DATE_AND_TIME_ASSIGNMENT(#376,#374,(#616));
#376=DATE_AND_TIME(#377,#378);
#377=CALENDAR_DATE(2023,17,10);
#378=LOCAL_TIME(0,0,0.,#379);
#379=COORDINATED_UNIVERSAL_TIME_OFFSET(0,0,.BEHIND.);
#380=AXIS2_PLACEMENT_3D('',#504,#408,#409);
#381=AXIS2_PLACEMENT_3D('',#505,#410,#411);
#382=AXIS2_PLACEMENT_3D('',#514,#416,#417);
#383=AXIS2_PLACEMENT_3D('',#523,#422,#423);
#384=AXIS2_PLACEMENT_3D('',#526,#426,#427);
#385=AXIS2_PLACEMENT_3D('',#535,#432,#433);
#386=AXIS2_PLACEMENT_3D('',#537,#435,#436);
#387=AXIS2_PLACEMENT_3D('',#541,#438,#439);
#388=AXIS2_PLACEMENT_3D('',#545,#441,#442);
#389=AXIS2_PLACEMENT_3D('',#547,#444,#445);
#390=AXIS2_PLACEMENT_3D('',#549,#447,#448);
#391=AXIS2_PLACEMENT_3D('',#561,#455,#456);
#392=AXIS2_PLACEMENT_3D('',#573,#463,#464);
#393=AXIS2_PLACEMENT_3D('',#576,#467,#468);
#394=AXIS2_PLACEMENT_3D('',#578,#469,#470);
#395=AXIS2_PLACEMENT_3D('',#581,#472,#473);
#396=AXIS2_PLACEMENT_3D('',#582,#474,#475);
#397=AXIS2_PLACEMENT_3D('',#584,#476,#477);
#398=AXIS2_PLACEMENT_3D('',#587,#479,#480);
#399=AXIS2_PLACEMENT_3D('',#589,#481,#482);
#400=AXIS2_PLACEMENT_3D('',#592,#484,#485);
#401=AXIS2_PLACEMENT_3D('',#593,#486,#487);
#402=AXIS2_PLACEMENT_3D('',#595,#489,#490);
#403=AXIS2_PLACEMENT_3D('',#597,#492,#493);
#404=AXIS2_PLACEMENT_3D('',#598,#494,#495);
#405=AXIS2_PLACEMENT_3D('',#600,#497,#498);
#406=AXIS2_PLACEMENT_3D('',#602,#500,#501);
#407=AXIS2_PLACEMENT_3D('',#603,#502,#503);
#408=DIRECTION('axis',(0.,0.,1.));
#409=DIRECTION('refdir',(1.,0.,0.));
#410=DIRECTION('center_axis',(-1.490232247819E-16,1.,0.));
#411=DIRECTION('ref_axis',(1.,1.490232247819E-16,0.));
#412=DIRECTION('',(-1.,-1.490232247819E-16,0.));
#413=DIRECTION('',(0.,0.,1.));
#414=DIRECTION('',(1.,1.490232247819E-16,0.));
#415=DIRECTION('',(0.,0.,-1.));
#416=DIRECTION('center_axis',(4.96744082606334E-17,-1.,0.));
#417=DIRECTION('ref_axis',(-1.,-4.96744082606334E-17,0.));
#418=DIRECTION('',(1.,4.96744082606334E-17,0.));
#419=DIRECTION('',(0.,0.,1.));
#420=DIRECTION('',(-1.,-4.96744082606334E-17,0.));
#421=DIRECTION('',(0.,0.,-1.));
#422=DIRECTION('center_axis',(1.,0.,0.));
#423=DIRECTION('ref_axis',(0.,-1.,0.));
#424=DIRECTION('',(0.,-1.,0.));
#425=DIRECTION('',(0.,-1.,0.));
#426=DIRECTION('center_axis',(-1.,0.,0.));
#427=DIRECTION('ref_axis',(0.,1.,0.));
#428=DIRECTION('',(0.,1.,0.));
#429=DIRECTION('',(0.,0.,-1.));
#430=DIRECTION('',(0.,1.,0.));
#431=DIRECTION('',(0.,0.,1.));
#432=DIRECTION('center_axis',(0.,0.,1.));
#433=DIRECTION('ref_axis',(1.,0.,0.));
#434=DIRECTION('',(0.,1.,0.));
#435=DIRECTION('center_axis',(0.,0.,1.));
#436=DIRECTION('ref_axis',(1.,0.,0.));
#437=DIRECTION('',(-1.,-2.71780422184861E-17,0.));
#438=DIRECTION('center_axis',(0.,0.,1.));
#439=DIRECTION('ref_axis',(1.,0.,0.));
#440=DIRECTION('',(4.33257765707378E-16,1.,0.));
#441=DIRECTION('center_axis',(0.,0.,1.));
#442=DIRECTION('ref_axis',(0.,-1.,0.));
#443=DIRECTION('',(1.,1.3589021109243E-16,0.));
#444=DIRECTION('center_axis',(1.,0.,0.));
#445=DIRECTION('ref_axis',(0.,-1.,0.));
#446=DIRECTION('',(0.,-1.,0.));
#447=DIRECTION('center_axis',(0.,-1.,0.));
#448=DIRECTION('ref_axis',(-1.,0.,0.));
#449=DIRECTION('',(0.,0.,1.));
#450=DIRECTION('',(1.,1.3589021109243E-16,0.));
#451=DIRECTION('',(0.,0.,1.));
#452=DIRECTION('',(1.,1.3589021109243E-16,0.));
#453=DIRECTION('',(0.,0.,-1.));
#454=DIRECTION('',(-1.,0.,0.));
#455=DIRECTION('center_axis',(0.,1.,0.));
#456=DIRECTION('ref_axis',(1.,0.,0.));
#457=DIRECTION('',(-1.,-2.71780422184861E-17,0.));
#458=DIRECTION('',(0.,0.,1.));
#459=DIRECTION('',(-1.,0.,0.));
#460=DIRECTION('',(0.,0.,1.));
#461=DIRECTION('',(-1.,-2.71780422184861E-17,0.));
#462=DIRECTION('',(0.,0.,1.));
#463=DIRECTION('center_axis',(-1.,0.,0.));
#464=DIRECTION('ref_axis',(0.,1.,0.));
#465=DIRECTION('',(0.,1.,0.));
#466=DIRECTION('',(0.,-1.,0.));
#467=DIRECTION('center_axis',(0.,0.,1.));
#468=DIRECTION('ref_axis',(1.,0.,0.));
#469=DIRECTION('center_axis',(0.,0.,1.));
#470=DIRECTION('ref_axis',(-1.,0.,0.));
#471=DIRECTION('',(-4.33257765707378E-16,-1.,0.));
#472=DIRECTION('center_axis',(0.,0.,1.));
#473=DIRECTION('ref_axis',(0.,1.,0.));
#474=DIRECTION('center_axis',(0.,0.,1.));
#475=DIRECTION('ref_axis',(1.,0.,0.));
#476=DIRECTION('center_axis',(0.,0.,1.));
#477=DIRECTION('ref_axis',(0.,-1.,0.));
#478=DIRECTION('',(4.33257765707378E-16,1.,0.));
#479=DIRECTION('center_axis',(0.,0.,1.));
#480=DIRECTION('ref_axis',(1.,0.,0.));
#481=DIRECTION('center_axis',(0.,0.,1.));
#482=DIRECTION('ref_axis',(0.,1.,0.));
#483=DIRECTION('',(-4.33257765707378E-16,-1.,0.));
#484=DIRECTION('center_axis',(0.,0.,1.));
#485=DIRECTION('ref_axis',(-1.,0.,0.));
#486=DIRECTION('center_axis',(0.,0.,1.));
#487=DIRECTION('ref_axis',(-1.,0.,0.));
#488=DIRECTION('',(0.,0.,1.));
#489=DIRECTION('center_axis',(-1.,4.33257765707378E-16,0.));
#490=DIRECTION('ref_axis',(-4.33257765707378E-16,-1.,0.));
#491=DIRECTION('',(0.,0.,1.));
#492=DIRECTION('center_axis',(0.,0.,1.));
#493=DIRECTION('ref_axis',(0.,1.,0.));
#494=DIRECTION('center_axis',(0.,0.,1.));
#495=DIRECTION('ref_axis',(1.,0.,0.));
#496=DIRECTION('',(0.,0.,1.));
#497=DIRECTION('center_axis',(1.,-4.33257765707378E-16,0.));
#498=DIRECTION('ref_axis',(4.33257765707378E-16,1.,0.));
#499=DIRECTION('',(0.,0.,1.));
#500=DIRECTION('center_axis',(0.,0.,1.));
#501=DIRECTION('ref_axis',(0.,-1.,0.));
#502=DIRECTION('center_axis',(0.,0.,1.));
#503=DIRECTION('ref_axis',(1.,0.,0.));
#504=CARTESIAN_POINT('',(0.,0.,0.));
#505=CARTESIAN_POINT('Origin',(-19.75,-8.75000000000002,0.));
#506=CARTESIAN_POINT('',(19.75,-8.75000000000001,0.));
#507=CARTESIAN_POINT('',(-19.75,-8.75000000000002,0.));
#508=CARTESIAN_POINT('',(-9.875,-8.75000000000001,0.));
#509=CARTESIAN_POINT('',(19.75,-8.75000000000001,-5.));
#510=CARTESIAN_POINT('',(19.75,-8.75000000000001,0.5));
#511=CARTESIAN_POINT('',(-19.75,-8.75000000000002,-5.));
#512=CARTESIAN_POINT('',(-22.35,-8.75000000000002,-5.));
#513=CARTESIAN_POINT('',(-19.75,-8.75000000000002,0.5));
#514=CARTESIAN_POINT('Origin',(19.75,8.75,0.));
#515=CARTESIAN_POINT('',(-19.75,8.74999999999999,0.));
#516=CARTESIAN_POINT('',(19.75,8.75,0.));
#517=CARTESIAN_POINT('',(9.875,8.75,0.));
#518=CARTESIAN_POINT('',(-19.75,8.74999999999999,-5.));
#519=CARTESIAN_POINT('',(-19.75,8.74999999999999,0.5));
#520=CARTESIAN_POINT('',(19.75,8.75,-5.));
#521=CARTESIAN_POINT('',(22.35,8.75,-5.));
#522=CARTESIAN_POINT('',(19.75,8.75,0.5));
#523=CARTESIAN_POINT('Origin',(19.75,10.75,1.));
#524=CARTESIAN_POINT('',(19.75,5.37499999999999,0.));
#525=CARTESIAN_POINT('',(19.75,5.37499999999999,-5.));
#526=CARTESIAN_POINT('Origin',(20.75,-10.75,1.));
#527=CARTESIAN_POINT('',(20.75,-10.75,0.));
#528=CARTESIAN_POINT('',(20.75,10.75,0.));
#529=CARTESIAN_POINT('',(20.75,-5.37500000000001,0.));
#530=CARTESIAN_POINT('',(20.75,-10.75,-5.));
#531=CARTESIAN_POINT('',(20.75,-10.75,1.));
#532=CARTESIAN_POINT('',(20.75,10.75,-5.));
#533=CARTESIAN_POINT('',(20.75,-5.37500000000001,-5.));
#534=CARTESIAN_POINT('',(20.75,10.75,1.));
#535=CARTESIAN_POINT('Origin',(-4.44089209850063E-15,-1.11022302462516E-14,
0.));
#536=CARTESIAN_POINT('',(-19.75,5.37499999999999,0.));
#537=CARTESIAN_POINT('Origin',(-4.44089209850063E-15,-1.11022302462516E-14,
0.));
#538=CARTESIAN_POINT('',(40.85,10.75,0.));
#539=CARTESIAN_POINT('',(40.85,10.75,0.));
#540=CARTESIAN_POINT('',(41.35,10.25,0.));
#541=CARTESIAN_POINT('Origin',(40.85,10.25,0.));
#542=CARTESIAN_POINT('',(41.35,-10.25,0.));
#543=CARTESIAN_POINT('',(41.35,-10.25,0.));
#544=CARTESIAN_POINT('',(40.85,-10.75,0.));
#545=CARTESIAN_POINT('Origin',(40.85,-10.25,0.));
#546=CARTESIAN_POINT('',(-40.85,-10.75,0.));
#547=CARTESIAN_POINT('Origin',(-19.75,10.75,1.));
#548=CARTESIAN_POINT('',(-19.75,5.37499999999999,-5.));
#549=CARTESIAN_POINT('Origin',(-19.75,-10.75,1.));
#550=CARTESIAN_POINT('',(40.85,-10.75,1.));
#551=CARTESIAN_POINT('',(40.85,-10.75,0.));
#552=CARTESIAN_POINT('',(-40.85,-10.75,1.));
#553=CARTESIAN_POINT('',(-40.85,-10.75,1.));
#554=CARTESIAN_POINT('',(-40.85,-10.75,0.));
#555=CARTESIAN_POINT('',(-40.85,-10.75,0.));
#556=CARTESIAN_POINT('',(-20.75,-10.75,0.));
#557=CARTESIAN_POINT('',(-40.85,-10.75,0.));
#558=CARTESIAN_POINT('',(-20.75,-10.75,-5.));
#559=CARTESIAN_POINT('',(-20.75,-10.75,1.));
#560=CARTESIAN_POINT('',(-20.,-10.75,-5.));
#561=CARTESIAN_POINT('Origin',(-20.75,10.75,1.));
#562=CARTESIAN_POINT('',(40.85,10.75,1.));
#563=CARTESIAN_POINT('',(-40.85,10.75,1.));
#564=CARTESIAN_POINT('',(40.85,10.75,1.));
#565=CARTESIAN_POINT('',(40.85,10.75,0.));
#566=CARTESIAN_POINT('',(-20.75,10.75,-5.));
#567=CARTESIAN_POINT('',(20.5,10.75,-5.));
#568=CARTESIAN_POINT('',(-20.75,10.75,0.));
#569=CARTESIAN_POINT('',(-20.75,10.75,1.));
#570=CARTESIAN_POINT('',(-40.85,10.75,0.));
#571=CARTESIAN_POINT('',(40.85,10.75,0.));
#572=CARTESIAN_POINT('',(-40.85,10.75,0.));
#573=CARTESIAN_POINT('Origin',(-20.75,-10.75,1.));
#574=CARTESIAN_POINT('',(-20.75,-5.37500000000001,-5.));
#575=CARTESIAN_POINT('',(-20.75,-5.37500000000001,0.));
#576=CARTESIAN_POINT('Origin',(-4.44089209850063E-15,-1.11022302462516E-14,
0.));
#577=CARTESIAN_POINT('',(-41.35,-10.25,0.));
#578=CARTESIAN_POINT('Origin',(-40.85,-10.25,0.));
#579=CARTESIAN_POINT('',(-41.35,10.25,0.));
#580=CARTESIAN_POINT('',(-41.35,10.25,0.));
#581=CARTESIAN_POINT('Origin',(-40.85,10.25,0.));
#582=CARTESIAN_POINT('Origin',(-4.44089209850063E-15,-1.11022302462516E-14,
1.));
#583=CARTESIAN_POINT('',(41.35,-10.25,1.));
#584=CARTESIAN_POINT('Origin',(40.85,-10.25,1.));
#585=CARTESIAN_POINT('',(41.35,10.25,1.));
#586=CARTESIAN_POINT('',(41.35,-10.25,1.));
#587=CARTESIAN_POINT('Origin',(40.85,10.25,1.));
#588=CARTESIAN_POINT('',(-41.35,10.25,1.));
#589=CARTESIAN_POINT('Origin',(-40.85,10.25,1.));
#590=CARTESIAN_POINT('',(-41.35,-10.25,1.));
#591=CARTESIAN_POINT('',(-41.35,10.25,1.));
#592=CARTESIAN_POINT('Origin',(-40.85,-10.25,1.));
#593=CARTESIAN_POINT('Origin',(-40.85,-10.25,0.));
#594=CARTESIAN_POINT('',(-41.35,-10.25,0.));
#595=CARTESIAN_POINT('Origin',(-41.35,10.25,0.));
#596=CARTESIAN_POINT('',(-41.35,10.25,0.));
#597=CARTESIAN_POINT('Origin',(-40.85,10.25,0.));
#598=CARTESIAN_POINT('Origin',(40.85,10.25,0.));
#599=CARTESIAN_POINT('',(41.35,10.25,0.));
#600=CARTESIAN_POINT('Origin',(41.35,-10.25,0.));
#601=CARTESIAN_POINT('',(41.35,-10.25,0.));
#602=CARTESIAN_POINT('Origin',(40.85,-10.25,0.));
#603=CARTESIAN_POINT('Origin',(-20.25,-9.99200722162641E-15,-5.));
#604=UNCERTAINTY_MEASURE_WITH_UNIT(LENGTH_MEASURE(0.01),#608,
'DISTANCE_ACCURACY_VALUE',
'Maximum model space distance between geometric entities at asserted c
onnectivities');
#605=UNCERTAINTY_MEASURE_WITH_UNIT(LENGTH_MEASURE(0.01),#608,
'DISTANCE_ACCURACY_VALUE',
'Maximum model space distance between geometric entities at asserted c
onnectivities');
#606=(
GEOMETRIC_REPRESENTATION_CONTEXT(3)
GLOBAL_UNCERTAINTY_ASSIGNED_CONTEXT((#604))
GLOBAL_UNIT_ASSIGNED_CONTEXT((#608,#610,#611))
REPRESENTATION_CONTEXT('','3D')
);
#607=(
GEOMETRIC_REPRESENTATION_CONTEXT(3)
GLOBAL_UNCERTAINTY_ASSIGNED_CONTEXT((#605))
GLOBAL_UNIT_ASSIGNED_CONTEXT((#608,#610,#611))
REPRESENTATION_CONTEXT('','3D')
);
#608=(
LENGTH_UNIT()
NAMED_UNIT(*)
SI_UNIT(.MILLI.,.METRE.)
);
#609=(
LENGTH_UNIT()
NAMED_UNIT(*)
SI_UNIT(.CENTI.,.METRE.)
);
#610=(
NAMED_UNIT(*)
PLANE_ANGLE_UNIT()
SI_UNIT($,.RADIAN.)
);
#611=(
NAMED_UNIT(*)
SI_UNIT($,.STERADIAN.)
SOLID_ANGLE_UNIT()
);
#612=SHAPE_DEFINITION_REPRESENTATION(#613,#614);
#613=PRODUCT_DEFINITION_SHAPE('',$,#616);
#614=SHAPE_REPRESENTATION('',(#380),#606);
#615=PRODUCT_DEFINITION_CONTEXT('part definition',#620,'design');
#616=PRODUCT_DEFINITION('back_plane','back_plane',#617,#615);
#617=PRODUCT_DEFINITION_FORMATION('',$,#622);
#618=PRODUCT_RELATED_PRODUCT_CATEGORY('back_plane','back_plane',(#622));
#619=APPLICATION_PROTOCOL_DEFINITION('international standard',
'automotive_design',2009,#620);
#620=APPLICATION_CONTEXT(
'Core Data for Automotive Mechanical Design Process');
#621=PRODUCT_CONTEXT('part definition',#620,'mechanical');
#622=PRODUCT('back_plane','back_plane',$,(#621));
#623=PRESENTATION_STYLE_ASSIGNMENT((#624));
#624=SURFACE_STYLE_USAGE(.BOTH.,#627);
#625=SURFACE_STYLE_RENDERING_WITH_PROPERTIES($,#631,(#626));
#626=SURFACE_STYLE_TRANSPARENT(0.);
#627=SURFACE_SIDE_STYLE('',(#628,#625));
#628=SURFACE_STYLE_FILL_AREA(#629);
#629=FILL_AREA_STYLE('',(#630));
#630=FILL_AREA_STYLE_COLOUR('',#631);
#631=COLOUR_RGB('',0.23921568627451,0.56078431372549,0.713725490196078);
ENDSEC;
END-ISO-10303-21;
