ISO-10303-21;
HEADER;
/* Generated by software containing ST-Developer
 * from STEP Tools, Inc. (www.steptools.com) 
 */

FILE_DESCRIPTION(
/* description */ (''),
/* implementation_level */ '2;1');

FILE_NAME(
/* name */ 'battery_front.stp',
/* time_stamp */ '2025-05-14T19:43:19+02:00',
/* author */ ('Henrik Hose'),
/* organization */ (''),
/* preprocessor_version */ 'ST-DEVELOPER v19.2',
/* originating_system */ 'Autodesk Inventor 2024',
/* authorisation */ '');

FILE_SCHEMA (('AUTOMOTIVE_DESIGN { 1 0 10303 214 3 1 1 }'));
ENDSEC;

DATA;
#10=MECHANICAL_DESIGN_GEOMETRIC_PRESENTATION_REPRESENTATION('',(#13),#978);
#11=SHAPE_REPRESENTATION_RELATIONSHIP('SRR','None',#985,#12);
#12=ADVANCED_BREP_SHAPE_REPRESENTATION('',(#14),#977);
#13=STYLED_ITEM('',(#995),#14);
#14=MANIFOLD_SOLID_BREP('Volumenk\X\F6rper1',#609);
#15=FACE_BOUND('',#51,.T.);
#16=FACE_OUTER_BOUND('',#45,.T.);
#17=FACE_OUTER_BOUND('',#46,.T.);
#18=FACE_OUTER_BOUND('',#47,.T.);
#19=FACE_OUTER_BOUND('',#48,.T.);
#20=FACE_OUTER_BOUND('',#49,.T.);
#21=FACE_OUTER_BOUND('',#50,.T.);
#22=FACE_OUTER_BOUND('',#52,.T.);
#23=FACE_OUTER_BOUND('',#53,.T.);
#24=FACE_OUTER_BOUND('',#54,.T.);
#25=FACE_OUTER_BOUND('',#55,.T.);
#26=FACE_OUTER_BOUND('',#56,.T.);
#27=FACE_OUTER_BOUND('',#57,.T.);
#28=FACE_OUTER_BOUND('',#58,.T.);
#29=FACE_OUTER_BOUND('',#59,.T.);
#30=FACE_OUTER_BOUND('',#60,.T.);
#31=FACE_OUTER_BOUND('',#61,.T.);
#32=FACE_OUTER_BOUND('',#62,.T.);
#33=FACE_OUTER_BOUND('',#63,.T.);
#34=FACE_OUTER_BOUND('',#64,.T.);
#35=FACE_OUTER_BOUND('',#65,.T.);
#36=FACE_OUTER_BOUND('',#66,.T.);
#37=FACE_OUTER_BOUND('',#67,.T.);
#38=FACE_OUTER_BOUND('',#68,.T.);
#39=FACE_OUTER_BOUND('',#69,.T.);
#40=FACE_OUTER_BOUND('',#70,.T.);
#41=FACE_OUTER_BOUND('',#71,.T.);
#42=FACE_OUTER_BOUND('',#72,.T.);
#43=FACE_OUTER_BOUND('',#73,.T.);
#44=FACE_OUTER_BOUND('',#74,.T.);
#45=EDGE_LOOP('',(#383,#384,#385,#386));
#46=EDGE_LOOP('',(#387,#388,#389,#390));
#47=EDGE_LOOP('',(#391,#392,#393,#394));
#48=EDGE_LOOP('',(#395,#396,#397,#398));
#49=EDGE_LOOP('',(#399,#400,#401,#402));
#50=EDGE_LOOP('',(#403,#404,#405,#406,#407,#408,#409,#410,#411,#412,#413,
#414));
#51=EDGE_LOOP('',(#415,#416,#417,#418));
#52=EDGE_LOOP('',(#419,#420,#421,#422));
#53=EDGE_LOOP('',(#423,#424,#425,#426,#427,#428,#429,#430,#431,#432,#433,
#434,#435,#436,#437,#438));
#54=EDGE_LOOP('',(#439,#440,#441,#442,#443,#444,#445,#446));
#55=EDGE_LOOP('',(#447,#448,#449,#450));
#56=EDGE_LOOP('',(#451,#452,#453,#454));
#57=EDGE_LOOP('',(#455,#456,#457,#458));
#58=EDGE_LOOP('',(#459,#460,#461,#462));
#59=EDGE_LOOP('',(#463,#464,#465,#466));
#60=EDGE_LOOP('',(#467,#468,#469,#470,#471,#472,#473,#474,#475,#476,#477,
#478));
#61=EDGE_LOOP('',(#479,#480,#481,#482));
#62=EDGE_LOOP('',(#483,#484,#485,#486));
#63=EDGE_LOOP('',(#487,#488,#489,#490,#491,#492,#493,#494));
#64=EDGE_LOOP('',(#495,#496,#497,#498));
#65=EDGE_LOOP('',(#499,#500,#501,#502));
#66=EDGE_LOOP('',(#503,#504,#505,#506));
#67=EDGE_LOOP('',(#507,#508,#509,#510));
#68=EDGE_LOOP('',(#511,#512,#513,#514));
#69=EDGE_LOOP('',(#515,#516,#517,#518,#519,#520,#521,#522));
#70=EDGE_LOOP('',(#523,#524,#525,#526));
#71=EDGE_LOOP('',(#527,#528,#529,#530));
#72=EDGE_LOOP('',(#531,#532,#533,#534,#535,#536,#537,#538));
#73=EDGE_LOOP('',(#539,#540,#541,#542,#543,#544,#545,#546));
#74=EDGE_LOOP('',(#547,#548,#549,#550));
#75=LINE('',#809,#159);
#76=LINE('',#811,#160);
#77=LINE('',#813,#161);
#78=LINE('',#814,#162);
#79=LINE('',#818,#163);
#80=LINE('',#820,#164);
#81=LINE('',#822,#165);
#82=LINE('',#823,#166);
#83=LINE('',#827,#167);
#84=LINE('',#829,#168);
#85=LINE('',#831,#169);
#86=LINE('',#832,#170);
#87=LINE('',#836,#171);
#88=LINE('',#838,#172);
#89=LINE('',#840,#173);
#90=LINE('',#841,#174);
#91=LINE('',#843,#175);
#92=LINE('',#844,#176);
#93=LINE('',#847,#177);
#94=LINE('',#849,#178);
#95=LINE('',#850,#179);
#96=LINE('',#851,#180);
#97=LINE('',#853,#181);
#98=LINE('',#855,#182);
#99=LINE('',#856,#183);
#100=LINE('',#859,#184);
#101=LINE('',#861,#185);
#102=LINE('',#863,#186);
#103=LINE('',#864,#187);
#104=LINE('',#866,#188);
#105=LINE('',#867,#189);
#106=LINE('',#871,#190);
#107=LINE('',#873,#191);
#108=LINE('',#875,#192);
#109=LINE('',#877,#193);
#110=LINE('',#879,#194);
#111=LINE('',#881,#195);
#112=LINE('',#883,#196);
#113=LINE('',#885,#197);
#114=LINE('',#887,#198);
#115=LINE('',#889,#199);
#116=LINE('',#891,#200);
#117=LINE('',#893,#201);
#118=LINE('',#895,#202);
#119=LINE('',#897,#203);
#120=LINE('',#899,#204);
#121=LINE('',#900,#205);
#122=LINE('',#904,#206);
#123=LINE('',#906,#207);
#124=LINE('',#908,#208);
#125=LINE('',#910,#209);
#126=LINE('',#912,#210);
#127=LINE('',#914,#211);
#128=LINE('',#916,#212);
#129=LINE('',#917,#213);
#130=LINE('',#921,#214);
#131=LINE('',#923,#215);
#132=LINE('',#925,#216);
#133=LINE('',#926,#217);
#134=LINE('',#930,#218);
#135=LINE('',#932,#219);
#136=LINE('',#934,#220);
#137=LINE('',#935,#221);
#138=LINE('',#937,#222);
#139=LINE('',#938,#223);
#140=LINE('',#940,#224);
#141=LINE('',#941,#225);
#142=LINE('',#943,#226);
#143=LINE('',#944,#227);
#144=LINE('',#946,#228);
#145=LINE('',#947,#229);
#146=LINE('',#948,#230);
#147=LINE('',#950,#231);
#148=LINE('',#952,#232);
#149=LINE('',#954,#233);
#150=LINE('',#955,#234);
#151=LINE('',#958,#235);
#152=LINE('',#959,#236);
#153=LINE('',#961,#237);
#154=LINE('',#963,#238);
#155=LINE('',#965,#239);
#156=LINE('',#967,#240);
#157=LINE('',#970,#241);
#158=LINE('',#971,#242);
#159=VECTOR('',#665,10.);
#160=VECTOR('',#666,10.);
#161=VECTOR('',#667,10.);
#162=VECTOR('',#668,10.);
#163=VECTOR('',#671,10.);
#164=VECTOR('',#672,10.);
#165=VECTOR('',#673,10.);
#166=VECTOR('',#674,10.);
#167=VECTOR('',#677,10.);
#168=VECTOR('',#678,10.);
#169=VECTOR('',#679,10.);
#170=VECTOR('',#680,10.);
#171=VECTOR('',#683,10.);
#172=VECTOR('',#684,10.);
#173=VECTOR('',#685,10.);
#174=VECTOR('',#686,10.);
#175=VECTOR('',#689,10.);
#176=VECTOR('',#690,10.);
#177=VECTOR('',#693,10.);
#178=VECTOR('',#694,10.);
#179=VECTOR('',#695,10.);
#180=VECTOR('',#696,10.);
#181=VECTOR('',#697,10.);
#182=VECTOR('',#698,10.);
#183=VECTOR('',#699,10.);
#184=VECTOR('',#700,10.);
#185=VECTOR('',#701,10.);
#186=VECTOR('',#702,10.);
#187=VECTOR('',#703,10.);
#188=VECTOR('',#706,10.);
#189=VECTOR('',#707,10.);
#190=VECTOR('',#710,10.);
#191=VECTOR('',#711,10.);
#192=VECTOR('',#712,10.);
#193=VECTOR('',#713,10.);
#194=VECTOR('',#714,10.);
#195=VECTOR('',#715,10.);
#196=VECTOR('',#716,10.);
#197=VECTOR('',#717,10.);
#198=VECTOR('',#718,10.);
#199=VECTOR('',#719,10.);
#200=VECTOR('',#720,10.);
#201=VECTOR('',#721,10.);
#202=VECTOR('',#722,10.);
#203=VECTOR('',#723,10.);
#204=VECTOR('',#724,10.);
#205=VECTOR('',#725,10.);
#206=VECTOR('',#728,10.);
#207=VECTOR('',#729,10.);
#208=VECTOR('',#730,10.);
#209=VECTOR('',#731,10.);
#210=VECTOR('',#732,10.);
#211=VECTOR('',#733,10.);
#212=VECTOR('',#734,10.);
#213=VECTOR('',#735,10.);
#214=VECTOR('',#738,10.);
#215=VECTOR('',#739,10.);
#216=VECTOR('',#740,10.);
#217=VECTOR('',#741,10.);
#218=VECTOR('',#744,10.);
#219=VECTOR('',#745,10.);
#220=VECTOR('',#746,10.);
#221=VECTOR('',#747,10.);
#222=VECTOR('',#750,10.);
#223=VECTOR('',#751,10.);
#224=VECTOR('',#754,10.);
#225=VECTOR('',#755,10.);
#226=VECTOR('',#758,10.);
#227=VECTOR('',#759,10.);
#228=VECTOR('',#762,10.);
#229=VECTOR('',#763,10.);
#230=VECTOR('',#764,10.);
#231=VECTOR('',#767,10.);
#232=VECTOR('',#770,10.);
#233=VECTOR('',#773,10.);
#234=VECTOR('',#774,10.);
#235=VECTOR('',#779,10.);
#236=VECTOR('',#780,10.);
#237=VECTOR('',#783,10.);
#238=VECTOR('',#786,10.);
#239=VECTOR('',#789,10.);
#240=VECTOR('',#792,10.);
#241=VECTOR('',#797,10.);
#242=VECTOR('',#798,10.);
#243=VERTEX_POINT('',#807);
#244=VERTEX_POINT('',#808);
#245=VERTEX_POINT('',#810);
#246=VERTEX_POINT('',#812);
#247=VERTEX_POINT('',#816);
#248=VERTEX_POINT('',#817);
#249=VERTEX_POINT('',#819);
#250=VERTEX_POINT('',#821);
#251=VERTEX_POINT('',#825);
#252=VERTEX_POINT('',#826);
#253=VERTEX_POINT('',#828);
#254=VERTEX_POINT('',#830);
#255=VERTEX_POINT('',#834);
#256=VERTEX_POINT('',#835);
#257=VERTEX_POINT('',#837);
#258=VERTEX_POINT('',#839);
#259=VERTEX_POINT('',#846);
#260=VERTEX_POINT('',#848);
#261=VERTEX_POINT('',#852);
#262=VERTEX_POINT('',#854);
#263=VERTEX_POINT('',#857);
#264=VERTEX_POINT('',#858);
#265=VERTEX_POINT('',#860);
#266=VERTEX_POINT('',#862);
#267=VERTEX_POINT('',#869);
#268=VERTEX_POINT('',#870);
#269=VERTEX_POINT('',#872);
#270=VERTEX_POINT('',#874);
#271=VERTEX_POINT('',#876);
#272=VERTEX_POINT('',#878);
#273=VERTEX_POINT('',#880);
#274=VERTEX_POINT('',#882);
#275=VERTEX_POINT('',#884);
#276=VERTEX_POINT('',#886);
#277=VERTEX_POINT('',#888);
#278=VERTEX_POINT('',#890);
#279=VERTEX_POINT('',#892);
#280=VERTEX_POINT('',#894);
#281=VERTEX_POINT('',#896);
#282=VERTEX_POINT('',#898);
#283=VERTEX_POINT('',#902);
#284=VERTEX_POINT('',#903);
#285=VERTEX_POINT('',#905);
#286=VERTEX_POINT('',#907);
#287=VERTEX_POINT('',#909);
#288=VERTEX_POINT('',#911);
#289=VERTEX_POINT('',#913);
#290=VERTEX_POINT('',#915);
#291=VERTEX_POINT('',#919);
#292=VERTEX_POINT('',#920);
#293=VERTEX_POINT('',#922);
#294=VERTEX_POINT('',#924);
#295=VERTEX_POINT('',#928);
#296=VERTEX_POINT('',#929);
#297=VERTEX_POINT('',#931);
#298=VERTEX_POINT('',#933);
#299=EDGE_CURVE('',#243,#244,#75,.T.);
#300=EDGE_CURVE('',#245,#243,#76,.T.);
#301=EDGE_CURVE('',#246,#245,#77,.T.);
#302=EDGE_CURVE('',#244,#246,#78,.T.);
#303=EDGE_CURVE('',#247,#248,#79,.T.);
#304=EDGE_CURVE('',#249,#247,#80,.T.);
#305=EDGE_CURVE('',#250,#249,#81,.T.);
#306=EDGE_CURVE('',#248,#250,#82,.T.);
#307=EDGE_CURVE('',#251,#252,#83,.T.);
#308=EDGE_CURVE('',#253,#251,#84,.T.);
#309=EDGE_CURVE('',#254,#253,#85,.T.);
#310=EDGE_CURVE('',#254,#252,#86,.T.);
#311=EDGE_CURVE('',#255,#256,#87,.T.);
#312=EDGE_CURVE('',#257,#255,#88,.T.);
#313=EDGE_CURVE('',#258,#257,#89,.T.);
#314=EDGE_CURVE('',#256,#258,#90,.T.);
#315=EDGE_CURVE('',#256,#247,#91,.T.);
#316=EDGE_CURVE('',#249,#258,#92,.T.);
#317=EDGE_CURVE('',#259,#248,#93,.T.);
#318=EDGE_CURVE('',#260,#259,#94,.T.);
#319=EDGE_CURVE('',#244,#260,#95,.T.);
#320=EDGE_CURVE('',#246,#251,#96,.T.);
#321=EDGE_CURVE('',#261,#252,#97,.T.);
#322=EDGE_CURVE('',#262,#261,#98,.T.);
#323=EDGE_CURVE('',#255,#262,#99,.T.);
#324=EDGE_CURVE('',#263,#264,#100,.T.);
#325=EDGE_CURVE('',#264,#265,#101,.T.);
#326=EDGE_CURVE('',#265,#266,#102,.T.);
#327=EDGE_CURVE('',#266,#263,#103,.T.);
#328=EDGE_CURVE('',#243,#254,#104,.T.);
#329=EDGE_CURVE('',#253,#245,#105,.T.);
#330=EDGE_CURVE('',#267,#268,#106,.T.);
#331=EDGE_CURVE('',#267,#269,#107,.T.);
#332=EDGE_CURVE('',#270,#269,#108,.T.);
#333=EDGE_CURVE('',#270,#271,#109,.T.);
#334=EDGE_CURVE('',#272,#271,#110,.T.);
#335=EDGE_CURVE('',#273,#272,#111,.T.);
#336=EDGE_CURVE('',#274,#273,#112,.T.);
#337=EDGE_CURVE('',#275,#274,#113,.T.);
#338=EDGE_CURVE('',#276,#275,#114,.T.);
#339=EDGE_CURVE('',#277,#276,#115,.T.);
#340=EDGE_CURVE('',#278,#277,#116,.T.);
#341=EDGE_CURVE('',#279,#278,#117,.T.);
#342=EDGE_CURVE('',#280,#279,#118,.T.);
#343=EDGE_CURVE('',#280,#281,#119,.T.);
#344=EDGE_CURVE('',#281,#282,#120,.T.);
#345=EDGE_CURVE('',#282,#268,#121,.T.);
#346=EDGE_CURVE('',#283,#284,#122,.T.);
#347=EDGE_CURVE('',#285,#284,#123,.T.);
#348=EDGE_CURVE('',#286,#285,#124,.T.);
#349=EDGE_CURVE('',#286,#287,#125,.T.);
#350=EDGE_CURVE('',#288,#287,#126,.T.);
#351=EDGE_CURVE('',#288,#289,#127,.T.);
#352=EDGE_CURVE('',#289,#290,#128,.T.);
#353=EDGE_CURVE('',#290,#283,#129,.T.);
#354=EDGE_CURVE('',#291,#292,#130,.T.);
#355=EDGE_CURVE('',#292,#293,#131,.T.);
#356=EDGE_CURVE('',#294,#293,#132,.T.);
#357=EDGE_CURVE('',#291,#294,#133,.T.);
#358=EDGE_CURVE('',#295,#296,#134,.T.);
#359=EDGE_CURVE('',#295,#297,#135,.T.);
#360=EDGE_CURVE('',#298,#297,#136,.T.);
#361=EDGE_CURVE('',#298,#296,#137,.T.);
#362=EDGE_CURVE('',#268,#263,#138,.T.);
#363=EDGE_CURVE('',#267,#266,#139,.T.);
#364=EDGE_CURVE('',#286,#273,#140,.T.);
#365=EDGE_CURVE('',#287,#272,#141,.T.);
#366=EDGE_CURVE('',#275,#295,#142,.T.);
#367=EDGE_CURVE('',#297,#274,#143,.T.);
#368=EDGE_CURVE('',#285,#259,#144,.T.);
#369=EDGE_CURVE('',#257,#250,#145,.T.);
#370=EDGE_CURVE('',#262,#298,#146,.T.);
#371=EDGE_CURVE('',#276,#296,#147,.T.);
#372=EDGE_CURVE('',#271,#288,#148,.T.);
#373=EDGE_CURVE('',#260,#294,#149,.T.);
#374=EDGE_CURVE('',#293,#261,#150,.T.);
#375=EDGE_CURVE('',#283,#280,#151,.T.);
#376=EDGE_CURVE('',#281,#290,#152,.T.);
#377=EDGE_CURVE('',#270,#289,#153,.T.);
#378=EDGE_CURVE('',#284,#279,#154,.T.);
#379=EDGE_CURVE('',#282,#264,#155,.T.);
#380=EDGE_CURVE('',#269,#265,#156,.T.);
#381=EDGE_CURVE('',#292,#277,#157,.T.);
#382=EDGE_CURVE('',#278,#291,#158,.T.);
#383=ORIENTED_EDGE('',*,*,#299,.F.);
#384=ORIENTED_EDGE('',*,*,#300,.F.);
#385=ORIENTED_EDGE('',*,*,#301,.F.);
#386=ORIENTED_EDGE('',*,*,#302,.F.);
#387=ORIENTED_EDGE('',*,*,#303,.F.);
#388=ORIENTED_EDGE('',*,*,#304,.F.);
#389=ORIENTED_EDGE('',*,*,#305,.F.);
#390=ORIENTED_EDGE('',*,*,#306,.F.);
#391=ORIENTED_EDGE('',*,*,#307,.F.);
#392=ORIENTED_EDGE('',*,*,#308,.F.);
#393=ORIENTED_EDGE('',*,*,#309,.F.);
#394=ORIENTED_EDGE('',*,*,#310,.T.);
#395=ORIENTED_EDGE('',*,*,#311,.F.);
#396=ORIENTED_EDGE('',*,*,#312,.F.);
#397=ORIENTED_EDGE('',*,*,#313,.F.);
#398=ORIENTED_EDGE('',*,*,#314,.F.);
#399=ORIENTED_EDGE('',*,*,#304,.T.);
#400=ORIENTED_EDGE('',*,*,#315,.F.);
#401=ORIENTED_EDGE('',*,*,#314,.T.);
#402=ORIENTED_EDGE('',*,*,#316,.F.);
#403=ORIENTED_EDGE('',*,*,#303,.T.);
#404=ORIENTED_EDGE('',*,*,#317,.F.);
#405=ORIENTED_EDGE('',*,*,#318,.F.);
#406=ORIENTED_EDGE('',*,*,#319,.F.);
#407=ORIENTED_EDGE('',*,*,#302,.T.);
#408=ORIENTED_EDGE('',*,*,#320,.T.);
#409=ORIENTED_EDGE('',*,*,#307,.T.);
#410=ORIENTED_EDGE('',*,*,#321,.F.);
#411=ORIENTED_EDGE('',*,*,#322,.F.);
#412=ORIENTED_EDGE('',*,*,#323,.F.);
#413=ORIENTED_EDGE('',*,*,#311,.T.);
#414=ORIENTED_EDGE('',*,*,#315,.T.);
#415=ORIENTED_EDGE('',*,*,#324,.T.);
#416=ORIENTED_EDGE('',*,*,#325,.T.);
#417=ORIENTED_EDGE('',*,*,#326,.T.);
#418=ORIENTED_EDGE('',*,*,#327,.T.);
#419=ORIENTED_EDGE('',*,*,#300,.T.);
#420=ORIENTED_EDGE('',*,*,#328,.T.);
#421=ORIENTED_EDGE('',*,*,#309,.T.);
#422=ORIENTED_EDGE('',*,*,#329,.T.);
#423=ORIENTED_EDGE('',*,*,#330,.F.);
#424=ORIENTED_EDGE('',*,*,#331,.T.);
#425=ORIENTED_EDGE('',*,*,#332,.F.);
#426=ORIENTED_EDGE('',*,*,#333,.T.);
#427=ORIENTED_EDGE('',*,*,#334,.F.);
#428=ORIENTED_EDGE('',*,*,#335,.F.);
#429=ORIENTED_EDGE('',*,*,#336,.F.);
#430=ORIENTED_EDGE('',*,*,#337,.F.);
#431=ORIENTED_EDGE('',*,*,#338,.F.);
#432=ORIENTED_EDGE('',*,*,#339,.F.);
#433=ORIENTED_EDGE('',*,*,#340,.F.);
#434=ORIENTED_EDGE('',*,*,#341,.F.);
#435=ORIENTED_EDGE('',*,*,#342,.F.);
#436=ORIENTED_EDGE('',*,*,#343,.T.);
#437=ORIENTED_EDGE('',*,*,#344,.T.);
#438=ORIENTED_EDGE('',*,*,#345,.T.);
#439=ORIENTED_EDGE('',*,*,#346,.T.);
#440=ORIENTED_EDGE('',*,*,#347,.F.);
#441=ORIENTED_EDGE('',*,*,#348,.F.);
#442=ORIENTED_EDGE('',*,*,#349,.T.);
#443=ORIENTED_EDGE('',*,*,#350,.F.);
#444=ORIENTED_EDGE('',*,*,#351,.T.);
#445=ORIENTED_EDGE('',*,*,#352,.T.);
#446=ORIENTED_EDGE('',*,*,#353,.T.);
#447=ORIENTED_EDGE('',*,*,#354,.T.);
#448=ORIENTED_EDGE('',*,*,#355,.T.);
#449=ORIENTED_EDGE('',*,*,#356,.F.);
#450=ORIENTED_EDGE('',*,*,#357,.F.);
#451=ORIENTED_EDGE('',*,*,#358,.F.);
#452=ORIENTED_EDGE('',*,*,#359,.T.);
#453=ORIENTED_EDGE('',*,*,#360,.F.);
#454=ORIENTED_EDGE('',*,*,#361,.T.);
#455=ORIENTED_EDGE('',*,*,#330,.T.);
#456=ORIENTED_EDGE('',*,*,#362,.T.);
#457=ORIENTED_EDGE('',*,*,#327,.F.);
#458=ORIENTED_EDGE('',*,*,#363,.F.);
#459=ORIENTED_EDGE('',*,*,#349,.F.);
#460=ORIENTED_EDGE('',*,*,#364,.T.);
#461=ORIENTED_EDGE('',*,*,#335,.T.);
#462=ORIENTED_EDGE('',*,*,#365,.F.);
#463=ORIENTED_EDGE('',*,*,#359,.F.);
#464=ORIENTED_EDGE('',*,*,#366,.F.);
#465=ORIENTED_EDGE('',*,*,#337,.T.);
#466=ORIENTED_EDGE('',*,*,#367,.F.);
#467=ORIENTED_EDGE('',*,*,#348,.T.);
#468=ORIENTED_EDGE('',*,*,#368,.T.);
#469=ORIENTED_EDGE('',*,*,#317,.T.);
#470=ORIENTED_EDGE('',*,*,#306,.T.);
#471=ORIENTED_EDGE('',*,*,#369,.F.);
#472=ORIENTED_EDGE('',*,*,#312,.T.);
#473=ORIENTED_EDGE('',*,*,#323,.T.);
#474=ORIENTED_EDGE('',*,*,#370,.T.);
#475=ORIENTED_EDGE('',*,*,#360,.T.);
#476=ORIENTED_EDGE('',*,*,#367,.T.);
#477=ORIENTED_EDGE('',*,*,#336,.T.);
#478=ORIENTED_EDGE('',*,*,#364,.F.);
#479=ORIENTED_EDGE('',*,*,#366,.T.);
#480=ORIENTED_EDGE('',*,*,#358,.T.);
#481=ORIENTED_EDGE('',*,*,#371,.F.);
#482=ORIENTED_EDGE('',*,*,#338,.T.);
#483=ORIENTED_EDGE('',*,*,#365,.T.);
#484=ORIENTED_EDGE('',*,*,#334,.T.);
#485=ORIENTED_EDGE('',*,*,#372,.T.);
#486=ORIENTED_EDGE('',*,*,#350,.T.);
#487=ORIENTED_EDGE('',*,*,#321,.T.);
#488=ORIENTED_EDGE('',*,*,#310,.F.);
#489=ORIENTED_EDGE('',*,*,#328,.F.);
#490=ORIENTED_EDGE('',*,*,#299,.T.);
#491=ORIENTED_EDGE('',*,*,#319,.T.);
#492=ORIENTED_EDGE('',*,*,#373,.T.);
#493=ORIENTED_EDGE('',*,*,#356,.T.);
#494=ORIENTED_EDGE('',*,*,#374,.T.);
#495=ORIENTED_EDGE('',*,*,#301,.T.);
#496=ORIENTED_EDGE('',*,*,#329,.F.);
#497=ORIENTED_EDGE('',*,*,#308,.T.);
#498=ORIENTED_EDGE('',*,*,#320,.F.);
#499=ORIENTED_EDGE('',*,*,#343,.F.);
#500=ORIENTED_EDGE('',*,*,#375,.F.);
#501=ORIENTED_EDGE('',*,*,#353,.F.);
#502=ORIENTED_EDGE('',*,*,#376,.F.);
#503=ORIENTED_EDGE('',*,*,#333,.F.);
#504=ORIENTED_EDGE('',*,*,#377,.T.);
#505=ORIENTED_EDGE('',*,*,#351,.F.);
#506=ORIENTED_EDGE('',*,*,#372,.F.);
#507=ORIENTED_EDGE('',*,*,#375,.T.);
#508=ORIENTED_EDGE('',*,*,#342,.T.);
#509=ORIENTED_EDGE('',*,*,#378,.F.);
#510=ORIENTED_EDGE('',*,*,#346,.F.);
#511=ORIENTED_EDGE('',*,*,#324,.F.);
#512=ORIENTED_EDGE('',*,*,#362,.F.);
#513=ORIENTED_EDGE('',*,*,#345,.F.);
#514=ORIENTED_EDGE('',*,*,#379,.T.);
#515=ORIENTED_EDGE('',*,*,#332,.T.);
#516=ORIENTED_EDGE('',*,*,#380,.T.);
#517=ORIENTED_EDGE('',*,*,#325,.F.);
#518=ORIENTED_EDGE('',*,*,#379,.F.);
#519=ORIENTED_EDGE('',*,*,#344,.F.);
#520=ORIENTED_EDGE('',*,*,#376,.T.);
#521=ORIENTED_EDGE('',*,*,#352,.F.);
#522=ORIENTED_EDGE('',*,*,#377,.F.);
#523=ORIENTED_EDGE('',*,*,#326,.F.);
#524=ORIENTED_EDGE('',*,*,#380,.F.);
#525=ORIENTED_EDGE('',*,*,#331,.F.);
#526=ORIENTED_EDGE('',*,*,#363,.T.);
#527=ORIENTED_EDGE('',*,*,#340,.T.);
#528=ORIENTED_EDGE('',*,*,#381,.F.);
#529=ORIENTED_EDGE('',*,*,#354,.F.);
#530=ORIENTED_EDGE('',*,*,#382,.F.);
#531=ORIENTED_EDGE('',*,*,#371,.T.);
#532=ORIENTED_EDGE('',*,*,#361,.F.);
#533=ORIENTED_EDGE('',*,*,#370,.F.);
#534=ORIENTED_EDGE('',*,*,#322,.T.);
#535=ORIENTED_EDGE('',*,*,#374,.F.);
#536=ORIENTED_EDGE('',*,*,#355,.F.);
#537=ORIENTED_EDGE('',*,*,#381,.T.);
#538=ORIENTED_EDGE('',*,*,#339,.T.);
#539=ORIENTED_EDGE('',*,*,#382,.T.);
#540=ORIENTED_EDGE('',*,*,#357,.T.);
#541=ORIENTED_EDGE('',*,*,#373,.F.);
#542=ORIENTED_EDGE('',*,*,#318,.T.);
#543=ORIENTED_EDGE('',*,*,#368,.F.);
#544=ORIENTED_EDGE('',*,*,#347,.T.);
#545=ORIENTED_EDGE('',*,*,#378,.T.);
#546=ORIENTED_EDGE('',*,*,#341,.T.);
#547=ORIENTED_EDGE('',*,*,#305,.T.);
#548=ORIENTED_EDGE('',*,*,#316,.T.);
#549=ORIENTED_EDGE('',*,*,#313,.T.);
#550=ORIENTED_EDGE('',*,*,#369,.T.);
#551=PLANE('',#632);
#552=PLANE('',#633);
#553=PLANE('',#634);
#554=PLANE('',#635);
#555=PLANE('',#636);
#556=PLANE('',#637);
#557=PLANE('',#638);
#558=PLANE('',#639);
#559=PLANE('',#640);
#560=PLANE('',#641);
#561=PLANE('',#642);
#562=PLANE('',#643);
#563=PLANE('',#644);
#564=PLANE('',#645);
#565=PLANE('',#646);
#566=PLANE('',#647);
#567=PLANE('',#648);
#568=PLANE('',#649);
#569=PLANE('',#650);
#570=PLANE('',#651);
#571=PLANE('',#652);
#572=PLANE('',#653);
#573=PLANE('',#654);
#574=PLANE('',#655);
#575=PLANE('',#656);
#576=PLANE('',#657);
#577=PLANE('',#658);
#578=PLANE('',#659);
#579=PLANE('',#660);
#580=ADVANCED_FACE('',(#16),#551,.F.);
#581=ADVANCED_FACE('',(#17),#552,.F.);
#582=ADVANCED_FACE('',(#18),#553,.F.);
#583=ADVANCED_FACE('',(#19),#554,.F.);
#584=ADVANCED_FACE('',(#20),#555,.T.);
#585=ADVANCED_FACE('',(#21,#15),#556,.T.);
#586=ADVANCED_FACE('',(#22),#557,.T.);
#587=ADVANCED_FACE('',(#23),#558,.T.);
#588=ADVANCED_FACE('',(#24),#559,.T.);
#589=ADVANCED_FACE('',(#25),#560,.T.);
#590=ADVANCED_FACE('',(#26),#561,.T.);
#591=ADVANCED_FACE('',(#27),#562,.F.);
#592=ADVANCED_FACE('',(#28),#563,.F.);
#593=ADVANCED_FACE('',(#29),#564,.F.);
#594=ADVANCED_FACE('',(#30),#565,.T.);
#595=ADVANCED_FACE('',(#31),#566,.T.);
#596=ADVANCED_FACE('',(#32),#567,.T.);
#597=ADVANCED_FACE('',(#33),#568,.T.);
#598=ADVANCED_FACE('',(#34),#569,.T.);
#599=ADVANCED_FACE('',(#35),#570,.T.);
#600=ADVANCED_FACE('',(#36),#571,.T.);
#601=ADVANCED_FACE('',(#37),#572,.T.);
#602=ADVANCED_FACE('',(#38),#573,.F.);
#603=ADVANCED_FACE('',(#39),#574,.F.);
#604=ADVANCED_FACE('',(#40),#575,.F.);
#605=ADVANCED_FACE('',(#41),#576,.T.);
#606=ADVANCED_FACE('',(#42),#577,.F.);
#607=ADVANCED_FACE('',(#43),#578,.T.);
#608=ADVANCED_FACE('',(#44),#579,.T.);
#609=CLOSED_SHELL('',(#580,#581,#582,#583,#584,#585,#586,#587,#588,#589,
#590,#591,#592,#593,#594,#595,#596,#597,#598,#599,#600,#601,#602,#603,#604,
#605,#606,#607,#608));
#610=DERIVED_UNIT_ELEMENT(#613,1.);
#611=DERIVED_UNIT_ELEMENT(#980,-3.);
#612=DIMENSIONAL_EXPONENTS(0.,1.,0.,0.,0.,0.,0.);
#613=(
CONVERSION_BASED_UNIT('gram',#615)
MASS_UNIT()
NAMED_UNIT(#612)
);
#614=(
MASS_UNIT()
NAMED_UNIT(*)
SI_UNIT(.KILO.,.GRAM.)
);
#615=MASS_MEASURE_WITH_UNIT(MASS_MEASURE(0.001),#614);
#616=DERIVED_UNIT((#610,#611));
#617=MEASURE_REPRESENTATION_ITEM('density measure',
POSITIVE_RATIO_MEASURE(1.),#616);
#618=PROPERTY_DEFINITION_REPRESENTATION(#623,#620);
#619=PROPERTY_DEFINITION_REPRESENTATION(#624,#621);
#620=REPRESENTATION('material name',(#622),#977);
#621=REPRESENTATION('density',(#617),#977);
#622=DESCRIPTIVE_REPRESENTATION_ITEM('Generic','Generic');
#623=PROPERTY_DEFINITION('material property','material name',#987);
#624=PROPERTY_DEFINITION('material property','density of part',#987);
#625=DATE_TIME_ROLE('creation_date');
#626=APPLIED_DATE_AND_TIME_ASSIGNMENT(#627,#625,(#987));
#627=DATE_AND_TIME(#628,#629);
#628=CALENDAR_DATE(2022,16,9);
#629=LOCAL_TIME(0,0,0.,#630);
#630=COORDINATED_UNIVERSAL_TIME_OFFSET(0,0,.BEHIND.);
#631=AXIS2_PLACEMENT_3D('',#805,#661,#662);
#632=AXIS2_PLACEMENT_3D('',#806,#663,#664);
#633=AXIS2_PLACEMENT_3D('',#815,#669,#670);
#634=AXIS2_PLACEMENT_3D('',#824,#675,#676);
#635=AXIS2_PLACEMENT_3D('',#833,#681,#682);
#636=AXIS2_PLACEMENT_3D('',#842,#687,#688);
#637=AXIS2_PLACEMENT_3D('',#845,#691,#692);
#638=AXIS2_PLACEMENT_3D('',#865,#704,#705);
#639=AXIS2_PLACEMENT_3D('',#868,#708,#709);
#640=AXIS2_PLACEMENT_3D('',#901,#726,#727);
#641=AXIS2_PLACEMENT_3D('',#918,#736,#737);
#642=AXIS2_PLACEMENT_3D('',#927,#742,#743);
#643=AXIS2_PLACEMENT_3D('',#936,#748,#749);
#644=AXIS2_PLACEMENT_3D('',#939,#752,#753);
#645=AXIS2_PLACEMENT_3D('',#942,#756,#757);
#646=AXIS2_PLACEMENT_3D('',#945,#760,#761);
#647=AXIS2_PLACEMENT_3D('',#949,#765,#766);
#648=AXIS2_PLACEMENT_3D('',#951,#768,#769);
#649=AXIS2_PLACEMENT_3D('',#953,#771,#772);
#650=AXIS2_PLACEMENT_3D('',#956,#775,#776);
#651=AXIS2_PLACEMENT_3D('',#957,#777,#778);
#652=AXIS2_PLACEMENT_3D('',#960,#781,#782);
#653=AXIS2_PLACEMENT_3D('',#962,#784,#785);
#654=AXIS2_PLACEMENT_3D('',#964,#787,#788);
#655=AXIS2_PLACEMENT_3D('',#966,#790,#791);
#656=AXIS2_PLACEMENT_3D('',#968,#793,#794);
#657=AXIS2_PLACEMENT_3D('',#969,#795,#796);
#658=AXIS2_PLACEMENT_3D('',#972,#799,#800);
#659=AXIS2_PLACEMENT_3D('',#973,#801,#802);
#660=AXIS2_PLACEMENT_3D('',#974,#803,#804);
#661=DIRECTION('axis',(0.,0.,1.));
#662=DIRECTION('refdir',(1.,0.,0.));
#663=DIRECTION('center_axis',(1.,0.,0.));
#664=DIRECTION('ref_axis',(0.,1.,0.));
#665=DIRECTION('',(0.,0.,1.));
#666=DIRECTION('',(0.,1.,0.));
#667=DIRECTION('',(0.,0.,-1.));
#668=DIRECTION('',(0.,-1.,0.));
#669=DIRECTION('center_axis',(1.,0.,0.));
#670=DIRECTION('ref_axis',(0.,1.,0.));
#671=DIRECTION('',(0.,-1.,0.));
#672=DIRECTION('',(0.,0.,1.));
#673=DIRECTION('',(0.,1.,0.));
#674=DIRECTION('',(0.,0.,-1.));
#675=DIRECTION('center_axis',(-1.,0.,0.));
#676=DIRECTION('ref_axis',(0.,-1.,0.));
#677=DIRECTION('',(0.,1.,0.));
#678=DIRECTION('',(0.,0.,1.));
#679=DIRECTION('',(0.,-1.,0.));
#680=DIRECTION('',(0.,0.,1.));
#681=DIRECTION('center_axis',(-1.,0.,0.));
#682=DIRECTION('ref_axis',(0.,-1.,0.));
#683=DIRECTION('',(0.,1.,0.));
#684=DIRECTION('',(0.,0.,1.));
#685=DIRECTION('',(0.,-1.,0.));
#686=DIRECTION('',(0.,0.,-1.));
#687=DIRECTION('center_axis',(0.,1.,0.));
#688=DIRECTION('ref_axis',(-1.,0.,0.));
#689=DIRECTION('',(-1.,0.,0.));
#690=DIRECTION('',(1.,0.,0.));
#691=DIRECTION('center_axis',(0.,0.,1.));
#692=DIRECTION('ref_axis',(1.,0.,0.));
#693=DIRECTION('',(-1.,0.,0.));
#694=DIRECTION('',(0.,1.,0.));
#695=DIRECTION('',(1.,0.,0.));
#696=DIRECTION('',(1.,0.,0.));
#697=DIRECTION('',(1.,0.,0.));
#698=DIRECTION('',(0.,-1.,0.));
#699=DIRECTION('',(-1.,0.,0.));
#700=DIRECTION('',(0.,1.,0.));
#701=DIRECTION('',(1.,-7.08652994441589E-16,0.));
#702=DIRECTION('',(-3.46944695195362E-16,-1.,0.));
#703=DIRECTION('',(-1.,5.90544162034658E-17,0.));
#704=DIRECTION('center_axis',(0.,0.,-1.));
#705=DIRECTION('ref_axis',(-1.,0.,0.));
#706=DIRECTION('',(1.,0.,0.));
#707=DIRECTION('',(-1.,0.,0.));
#708=DIRECTION('center_axis',(0.,0.,-1.));
#709=DIRECTION('ref_axis',(-1.,0.,0.));
#710=DIRECTION('',(-1.,5.90544162034658E-17,0.));
#711=DIRECTION('',(3.46944695195362E-16,1.,0.));
#712=DIRECTION('',(1.,-7.08652994441589E-16,0.));
#713=DIRECTION('',(-4.27008855625058E-16,1.,0.));
#714=DIRECTION('',(-1.,-1.11022302462516E-16,0.));
#715=DIRECTION('',(0.,-1.,0.));
#716=DIRECTION('',(-1.,0.,0.));
#717=DIRECTION('',(0.,1.,0.));
#718=DIRECTION('',(-1.,-1.11022302462516E-16,0.));
#719=DIRECTION('',(0.,1.,0.));
#720=DIRECTION('',(1.,1.11022302462516E-16,0.));
#721=DIRECTION('',(0.,-1.,0.));
#722=DIRECTION('',(-1.,-1.11022302462516E-16,0.));
#723=DIRECTION('',(0.,-1.,0.));
#724=DIRECTION('',(-1.,7.08652994441589E-16,0.));
#725=DIRECTION('',(0.,-1.,0.));
#726=DIRECTION('center_axis',(0.,0.,-1.));
#727=DIRECTION('ref_axis',(-1.,0.,0.));
#728=DIRECTION('',(-1.,8.7076315656875E-17,0.));
#729=DIRECTION('',(0.,-1.,0.));
#730=DIRECTION('',(-1.,0.,0.));
#731=DIRECTION('',(0.,-1.,0.));
#732=DIRECTION('',(1.,1.11022302462516E-16,0.));
#733=DIRECTION('',(4.27008855625058E-16,-1.,0.));
#734=DIRECTION('',(-1.,7.08652994441589E-16,0.));
#735=DIRECTION('',(0.,1.,0.));
#736=DIRECTION('center_axis',(0.,0.,-1.));
#737=DIRECTION('ref_axis',(-1.,0.,0.));
#738=DIRECTION('',(1.,-1.63268091856641E-16,0.));
#739=DIRECTION('',(0.,-1.,0.));
#740=DIRECTION('',(1.,0.,0.));
#741=DIRECTION('',(0.,-1.,0.));
#742=DIRECTION('center_axis',(0.,0.,-1.));
#743=DIRECTION('ref_axis',(-1.,0.,0.));
#744=DIRECTION('',(1.,1.11022302462516E-16,0.));
#745=DIRECTION('',(0.,1.,0.));
#746=DIRECTION('',(-1.,0.,0.));
#747=DIRECTION('',(0.,-1.,0.));
#748=DIRECTION('center_axis',(-5.90544162034658E-17,-1.,0.));
#749=DIRECTION('ref_axis',(1.,-5.90544162034658E-17,0.));
#750=DIRECTION('',(0.,0.,1.));
#751=DIRECTION('',(0.,0.,1.));
#752=DIRECTION('center_axis',(-1.,0.,0.));
#753=DIRECTION('ref_axis',(0.,-1.,0.));
#754=DIRECTION('',(0.,0.,1.));
#755=DIRECTION('',(0.,0.,1.));
#756=DIRECTION('center_axis',(1.,0.,0.));
#757=DIRECTION('ref_axis',(0.,1.,0.));
#758=DIRECTION('',(0.,0.,-1.));
#759=DIRECTION('',(0.,0.,1.));
#760=DIRECTION('center_axis',(0.,-1.,0.));
#761=DIRECTION('ref_axis',(1.,0.,0.));
#762=DIRECTION('',(0.,0.,1.));
#763=DIRECTION('',(-1.,0.,0.));
#764=DIRECTION('',(0.,0.,-1.));
#765=DIRECTION('center_axis',(1.11022302462516E-16,-1.,0.));
#766=DIRECTION('ref_axis',(1.,1.11022302462516E-16,0.));
#767=DIRECTION('',(0.,0.,-1.));
#768=DIRECTION('center_axis',(1.11022302462516E-16,-1.,0.));
#769=DIRECTION('ref_axis',(1.,1.11022302462516E-16,0.));
#770=DIRECTION('',(0.,0.,-1.));
#771=DIRECTION('center_axis',(0.,1.,0.));
#772=DIRECTION('ref_axis',(-1.,0.,0.));
#773=DIRECTION('',(0.,0.,-1.));
#774=DIRECTION('',(0.,0.,1.));
#775=DIRECTION('center_axis',(0.,-1.,0.));
#776=DIRECTION('ref_axis',(1.,0.,0.));
#777=DIRECTION('center_axis',(-1.,0.,0.));
#778=DIRECTION('ref_axis',(0.,1.,0.));
#779=DIRECTION('',(0.,0.,1.));
#780=DIRECTION('',(0.,0.,-1.));
#781=DIRECTION('center_axis',(1.,4.27008855625058E-16,0.));
#782=DIRECTION('ref_axis',(4.27008855625058E-16,-1.,0.));
#783=DIRECTION('',(0.,0.,-1.));
#784=DIRECTION('center_axis',(1.11022302462516E-16,-1.,0.));
#785=DIRECTION('ref_axis',(1.,1.11022302462516E-16,0.));
#786=DIRECTION('',(0.,0.,1.));
#787=DIRECTION('center_axis',(-1.,0.,0.));
#788=DIRECTION('ref_axis',(0.,-1.,0.));
#789=DIRECTION('',(0.,0.,1.));
#790=DIRECTION('center_axis',(7.08652994441589E-16,1.,0.));
#791=DIRECTION('ref_axis',(-1.,7.08652994441589E-16,0.));
#792=DIRECTION('',(0.,0.,1.));
#793=DIRECTION('center_axis',(1.,-3.46944695195362E-16,0.));
#794=DIRECTION('ref_axis',(3.46944695195362E-16,1.,0.));
#795=DIRECTION('center_axis',(-1.11022302462516E-16,1.,0.));
#796=DIRECTION('ref_axis',(-1.,-1.11022302462516E-16,0.));
#797=DIRECTION('',(0.,0.,1.));
#798=DIRECTION('',(0.,0.,-1.));
#799=DIRECTION('center_axis',(-1.,0.,0.));
#800=DIRECTION('ref_axis',(0.,-1.,0.));
#801=DIRECTION('center_axis',(-1.,0.,0.));
#802=DIRECTION('ref_axis',(0.,-1.,0.));
#803=DIRECTION('center_axis',(0.,0.,-1.));
#804=DIRECTION('ref_axis',(-1.,0.,0.));
#805=CARTESIAN_POINT('',(0.,0.,0.));
#806=CARTESIAN_POINT('Origin',(-41.5,-12.4,-7.6));
#807=CARTESIAN_POINT('',(-41.5,-10.9,-7.6));
#808=CARTESIAN_POINT('',(-41.5,-10.9,2.));
#809=CARTESIAN_POINT('',(-41.5,-10.9,0.));
#810=CARTESIAN_POINT('',(-41.5,-12.4,-7.6));
#811=CARTESIAN_POINT('',(-41.5,-6.2,-7.6));
#812=CARTESIAN_POINT('',(-41.5,-12.4,2.));
#813=CARTESIAN_POINT('',(-41.5,-12.4,-3.8));
#814=CARTESIAN_POINT('',(-41.5,-6.2,2.));
#815=CARTESIAN_POINT('Origin',(-41.5,-12.4,-7.6));
#816=CARTESIAN_POINT('',(-41.5,12.4,2.));
#817=CARTESIAN_POINT('',(-41.5,10.9,2.));
#818=CARTESIAN_POINT('',(-41.5,-6.2,2.));
#819=CARTESIAN_POINT('',(-41.5,12.4,-7.6));
#820=CARTESIAN_POINT('',(-41.5,12.4,-3.8));
#821=CARTESIAN_POINT('',(-41.5,10.9,-7.6));
#822=CARTESIAN_POINT('',(-41.5,-6.2,-7.6));
#823=CARTESIAN_POINT('',(-41.5,10.9,0.));
#824=CARTESIAN_POINT('Origin',(41.5,12.4,-7.6));
#825=CARTESIAN_POINT('',(41.5,-12.4,2.));
#826=CARTESIAN_POINT('',(41.5,-10.9,2.));
#827=CARTESIAN_POINT('',(41.5,6.2,2.));
#828=CARTESIAN_POINT('',(41.5,-12.4,-7.6));
#829=CARTESIAN_POINT('',(41.5,-12.4,-3.8));
#830=CARTESIAN_POINT('',(41.5,-10.9,-7.6));
#831=CARTESIAN_POINT('',(41.5,6.2,-7.6));
#832=CARTESIAN_POINT('',(41.5,-10.9,0.));
#833=CARTESIAN_POINT('Origin',(41.5,12.4,-7.6));
#834=CARTESIAN_POINT('',(41.5,10.9,2.));
#835=CARTESIAN_POINT('',(41.5,12.4,2.));
#836=CARTESIAN_POINT('',(41.5,6.2,2.));
#837=CARTESIAN_POINT('',(41.5,10.9,-7.6));
#838=CARTESIAN_POINT('',(41.5,10.9,0.));
#839=CARTESIAN_POINT('',(41.5,12.4,-7.6));
#840=CARTESIAN_POINT('',(41.5,6.2,-7.6));
#841=CARTESIAN_POINT('',(41.5,12.4,-3.8));
#842=CARTESIAN_POINT('Origin',(42.,12.4,0.));
#843=CARTESIAN_POINT('',(42.,12.4,2.));
#844=CARTESIAN_POINT('',(42.,12.4,-7.6));
#845=CARTESIAN_POINT('Origin',(0.,0.,2.));
#846=CARTESIAN_POINT('',(-25.5,10.9,2.));
#847=CARTESIAN_POINT('',(-20.75,10.9,2.));
#848=CARTESIAN_POINT('',(-25.5,-10.9,2.));
#849=CARTESIAN_POINT('',(-25.5,5.45,2.));
#850=CARTESIAN_POINT('',(20.75,-10.9,2.));
#851=CARTESIAN_POINT('',(-42.,-12.4,2.));
#852=CARTESIAN_POINT('',(25.5,-10.9,2.));
#853=CARTESIAN_POINT('',(20.75,-10.9,2.));
#854=CARTESIAN_POINT('',(25.5,10.9,2.));
#855=CARTESIAN_POINT('',(25.5,5.45,2.));
#856=CARTESIAN_POINT('',(-20.75,10.9,2.));
#857=CARTESIAN_POINT('',(-20.6,5.05,2.));
#858=CARTESIAN_POINT('',(-20.6,9.05000000000001,2.));
#859=CARTESIAN_POINT('',(-20.6,4.52500000000001,2.));
#860=CARTESIAN_POINT('',(-1.39999999999999,9.05,2.));
#861=CARTESIAN_POINT('',(-0.799999999999992,9.05,2.));
#862=CARTESIAN_POINT('',(-1.39999999999999,5.05,2.));
#863=CARTESIAN_POINT('',(-1.39999999999999,2.525,2.));
#864=CARTESIAN_POINT('',(-10.2,5.05,2.));
#865=CARTESIAN_POINT('Origin',(0.,0.,-7.6));
#866=CARTESIAN_POINT('',(41.5,-10.9,-7.6));
#867=CARTESIAN_POINT('',(-42.,-12.4,-7.6));
#868=CARTESIAN_POINT('Origin',(0.,0.0500000000000023,1.3));
#869=CARTESIAN_POINT('',(-1.39999999999999,5.05,1.3));
#870=CARTESIAN_POINT('',(-20.6,5.05,1.3));
#871=CARTESIAN_POINT('',(-10.2,5.05,1.3));
#872=CARTESIAN_POINT('',(-1.39999999999999,9.05,1.3));
#873=CARTESIAN_POINT('',(-1.39999999999999,2.55,1.3));
#874=CARTESIAN_POINT('',(-1.59999999999999,9.05,1.3));
#875=CARTESIAN_POINT('',(-0.799999999999992,9.05,1.3));
#876=CARTESIAN_POINT('',(-1.59999999999999,9.7,1.3));
#877=CARTESIAN_POINT('',(-1.59999999999999,4.875,1.3));
#878=CARTESIAN_POINT('',(13.5,9.7,1.3));
#879=CARTESIAN_POINT('',(-12.5,9.7,1.3));
#880=CARTESIAN_POINT('',(13.5,10.9,1.3));
#881=CARTESIAN_POINT('',(13.5,10.4,1.3));
#882=CARTESIAN_POINT('',(18.5,10.9,1.3));
#883=CARTESIAN_POINT('',(17.25,10.9,1.3));
#884=CARTESIAN_POINT('',(18.5,9.7,1.3));
#885=CARTESIAN_POINT('',(18.5,9.4,1.3));
#886=CARTESIAN_POINT('',(25.5,9.7,1.3));
#887=CARTESIAN_POINT('',(-12.5,9.7,1.3));
#888=CARTESIAN_POINT('',(25.5,-9.6,1.3));
#889=CARTESIAN_POINT('',(25.5,5.475,1.3));
#890=CARTESIAN_POINT('',(-25.5,-9.59999999999999,1.3));
#891=CARTESIAN_POINT('',(12.5,-9.6,1.3));
#892=CARTESIAN_POINT('',(-25.5,9.70000000000001,1.3));
#893=CARTESIAN_POINT('',(-25.5,5.475,1.3));
#894=CARTESIAN_POINT('',(-20.4,9.7,1.3));
#895=CARTESIAN_POINT('',(-12.5,9.7,1.3));
#896=CARTESIAN_POINT('',(-20.4,9.05000000000001,1.3));
#897=CARTESIAN_POINT('',(-20.4,4.55000000000001,1.3));
#898=CARTESIAN_POINT('',(-20.6,9.05000000000001,1.3));
#899=CARTESIAN_POINT('',(-0.799999999999992,9.05,1.3));
#900=CARTESIAN_POINT('',(-20.6,4.55000000000001,1.3));
#901=CARTESIAN_POINT('Origin',(33.5,1.11022302462516E-15,0.));
#902=CARTESIAN_POINT('',(-20.4,9.7,-2.77555756156289E-16));
#903=CARTESIAN_POINT('',(-25.5,9.70000000000001,0.));
#904=CARTESIAN_POINT('',(6.55,9.7,0.));
#905=CARTESIAN_POINT('',(-25.5,10.9,0.));
#906=CARTESIAN_POINT('',(-25.5,10.9,0.));
#907=CARTESIAN_POINT('',(13.5,10.9,0.));
#908=CARTESIAN_POINT('',(-20.75,10.9,0.));
#909=CARTESIAN_POINT('',(13.5,9.7,0.));
#910=CARTESIAN_POINT('',(13.5,5.45,0.));
#911=CARTESIAN_POINT('',(-1.59999999999999,9.7,-2.77555756156289E-16));
#912=CARTESIAN_POINT('',(-25.,9.7,0.));
#913=CARTESIAN_POINT('',(-1.59999999999999,9.05,-2.77555756156289E-16));
#914=CARTESIAN_POINT('',(-1.59999999999999,9.7,-2.77555756156289E-16));
#915=CARTESIAN_POINT('',(-20.4,9.05000000000001,-2.77555756156289E-16));
#916=CARTESIAN_POINT('',(-1.59999999999999,9.05,-2.77555756156289E-16));
#917=CARTESIAN_POINT('',(-20.4,9.05,-2.77555756156289E-16));
#918=CARTESIAN_POINT('Origin',(33.5,1.11022302462516E-15,0.));
#919=CARTESIAN_POINT('',(-25.5,-9.59999999999999,0.));
#920=CARTESIAN_POINT('',(25.5,-9.6,0.));
#921=CARTESIAN_POINT('',(4.,-9.6,0.));
#922=CARTESIAN_POINT('',(25.5,-10.9,0.));
#923=CARTESIAN_POINT('',(25.5,10.9,0.));
#924=CARTESIAN_POINT('',(-25.5,-10.9,0.));
#925=CARTESIAN_POINT('',(20.75,-10.9,0.));
#926=CARTESIAN_POINT('',(-25.5,10.9,0.));
#927=CARTESIAN_POINT('Origin',(33.5,1.11022302462516E-15,0.));
#928=CARTESIAN_POINT('',(18.5,9.7,0.));
#929=CARTESIAN_POINT('',(25.5,9.7,0.));
#930=CARTESIAN_POINT('',(-25.,9.7,0.));
#931=CARTESIAN_POINT('',(18.5,10.9,0.));
#932=CARTESIAN_POINT('',(18.5,4.45,0.));
#933=CARTESIAN_POINT('',(25.5,10.9,0.));
#934=CARTESIAN_POINT('',(-20.75,10.9,0.));
#935=CARTESIAN_POINT('',(25.5,10.9,0.));
#936=CARTESIAN_POINT('Origin',(-20.4,5.05,1.6));
#937=CARTESIAN_POINT('',(-20.6,5.05,1.6));
#938=CARTESIAN_POINT('',(-1.39999999999999,5.05,1.6));
#939=CARTESIAN_POINT('Origin',(13.5,10.9,-7.6));
#940=CARTESIAN_POINT('',(13.5,10.9,-7.6));
#941=CARTESIAN_POINT('',(13.5,9.7,-3.8));
#942=CARTESIAN_POINT('Origin',(18.5,8.9,-7.6));
#943=CARTESIAN_POINT('',(18.5,9.7,-3.8));
#944=CARTESIAN_POINT('',(18.5,10.9,-7.6));
#945=CARTESIAN_POINT('Origin',(-41.5,10.9,0.));
#946=CARTESIAN_POINT('',(-25.5,10.9,0.));
#947=CARTESIAN_POINT('',(-41.5,10.9,-7.6));
#948=CARTESIAN_POINT('',(25.5,10.9,0.));
#949=CARTESIAN_POINT('Origin',(-25.,9.7,0.));
#950=CARTESIAN_POINT('',(25.5,9.7,-3.8));
#951=CARTESIAN_POINT('Origin',(-25.,9.7,0.));
#952=CARTESIAN_POINT('',(-1.59999999999999,9.7,0.8));
#953=CARTESIAN_POINT('Origin',(41.5,-10.9,0.));
#954=CARTESIAN_POINT('',(-25.5,-10.9,0.));
#955=CARTESIAN_POINT('',(25.5,-10.9,0.));
#956=CARTESIAN_POINT('Origin',(-42.,-12.4,0.));
#957=CARTESIAN_POINT('Origin',(-20.4,9.05000000000001,1.6));
#958=CARTESIAN_POINT('',(-20.4,9.7,0.8));
#959=CARTESIAN_POINT('',(-20.4,9.05000000000001,1.6));
#960=CARTESIAN_POINT('Origin',(-1.59999999999999,9.7,1.6));
#961=CARTESIAN_POINT('',(-1.59999999999999,9.05,1.6));
#962=CARTESIAN_POINT('Origin',(-25.,9.7,0.));
#963=CARTESIAN_POINT('',(-25.5,9.7,-3.8));
#964=CARTESIAN_POINT('Origin',(-20.6,9.05000000000001,1.6));
#965=CARTESIAN_POINT('',(-20.6,9.05000000000001,1.6));
#966=CARTESIAN_POINT('Origin',(-1.59999999999999,9.05,1.6));
#967=CARTESIAN_POINT('',(-1.39999999999999,9.05,1.6));
#968=CARTESIAN_POINT('Origin',(-1.39999999999999,5.05,1.6));
#969=CARTESIAN_POINT('Origin',(25.,-9.6,0.));
#970=CARTESIAN_POINT('',(25.5,-9.6,-3.8));
#971=CARTESIAN_POINT('',(-25.5,-9.6,-3.8));
#972=CARTESIAN_POINT('Origin',(25.5,10.9,0.));
#973=CARTESIAN_POINT('Origin',(-25.5,10.9,0.));
#974=CARTESIAN_POINT('Origin',(0.,0.,-7.6));
#975=UNCERTAINTY_MEASURE_WITH_UNIT(LENGTH_MEASURE(0.01),#979,
'DISTANCE_ACCURACY_VALUE',
'Maximum model space distance between geometric entities at asserted c
onnectivities');
#976=UNCERTAINTY_MEASURE_WITH_UNIT(LENGTH_MEASURE(0.01),#979,
'DISTANCE_ACCURACY_VALUE',
'Maximum model space distance between geometric entities at asserted c
onnectivities');
#977=(
GEOMETRIC_REPRESENTATION_CONTEXT(3)
GLOBAL_UNCERTAINTY_ASSIGNED_CONTEXT((#975))
GLOBAL_UNIT_ASSIGNED_CONTEXT((#979,#981,#982))
REPRESENTATION_CONTEXT('','3D')
);
#978=(
GEOMETRIC_REPRESENTATION_CONTEXT(3)
GLOBAL_UNCERTAINTY_ASSIGNED_CONTEXT((#976))
GLOBAL_UNIT_ASSIGNED_CONTEXT((#979,#981,#982))
REPRESENTATION_CONTEXT('','3D')
);
#979=(
LENGTH_UNIT()
NAMED_UNIT(*)
SI_UNIT(.MILLI.,.METRE.)
);
#980=(
LENGTH_UNIT()
NAMED_UNIT(*)
SI_UNIT(.CENTI.,.METRE.)
);
#981=(
NAMED_UNIT(*)
PLANE_ANGLE_UNIT()
SI_UNIT($,.RADIAN.)
);
#982=(
NAMED_UNIT(*)
SI_UNIT($,.STERADIAN.)
SOLID_ANGLE_UNIT()
);
#983=SHAPE_DEFINITION_REPRESENTATION(#984,#985);
#984=PRODUCT_DEFINITION_SHAPE('',$,#987);
#985=SHAPE_REPRESENTATION('',(#631),#977);
#986=PRODUCT_DEFINITION_CONTEXT('part definition',#991,'design');
#987=PRODUCT_DEFINITION('battery_case_1','B_battery_case_1',#988,#986);
#988=PRODUCT_DEFINITION_FORMATION('',$,#993);
#989=PRODUCT_RELATED_PRODUCT_CATEGORY('B_battery_case_1',
'B_battery_case_1',(#993));
#990=APPLICATION_PROTOCOL_DEFINITION('international standard',
'automotive_design',2009,#991);
#991=APPLICATION_CONTEXT(
'Core Data for Automotive Mechanical Design Process');
#992=PRODUCT_CONTEXT('part definition',#991,'mechanical');
#993=PRODUCT('battery_case_1','B_battery_case_1',$,(#992));
#994=PRESENTATION_STYLE_ASSIGNMENT((#996));
#995=PRESENTATION_STYLE_ASSIGNMENT((#997));
#996=SURFACE_STYLE_USAGE(.BOTH.,#1002);
#997=SURFACE_STYLE_USAGE(.BOTH.,#1003);
#998=SURFACE_STYLE_RENDERING_WITH_PROPERTIES($,#1010,(#1000));
#999=SURFACE_STYLE_RENDERING_WITH_PROPERTIES($,#1011,(#1001));
#1000=SURFACE_STYLE_TRANSPARENT(0.);
#1001=SURFACE_STYLE_TRANSPARENT(0.);
#1002=SURFACE_SIDE_STYLE('',(#1004,#998));
#1003=SURFACE_SIDE_STYLE('',(#1005,#999));
#1004=SURFACE_STYLE_FILL_AREA(#1006);
#1005=SURFACE_STYLE_FILL_AREA(#1007);
#1006=FILL_AREA_STYLE('',(#1008));
#1007=FILL_AREA_STYLE('',(#1009));
#1008=FILL_AREA_STYLE_COLOUR('',#1010);
#1009=FILL_AREA_STYLE_COLOUR('',#1011);
#1010=COLOUR_RGB('',0.749019607843137,0.749019607843137,0.749019607843137);
#1011=COLOUR_RGB('',0.23921568627451,0.580392156862745,0.717647058823529);
ENDSEC;
END-ISO-10303-21;
