ISO-10303-21;
HEADER;
/* Generated by software containing ST-Developer
 * from STEP Tools, Inc. (www.steptools.com) 
 */

FILE_DESCRIPTION(
/* description */ (''),
/* implementation_level */ '2;1');

FILE_NAME(
/* name */ 'reactionwheel.stp',
/* time_stamp */ '2023-10-16T14:18:42+02:00',
/* author */ ('Henrik Hose'),
/* organization */ (''),
/* preprocessor_version */ 'ST-DEVELOPER v19.2',
/* originating_system */ 'Autodesk Inventor 2024',
/* authorisation */ '');

FILE_SCHEMA (('AUTOMOTIVE_DESIGN { 1 0 10303 214 3 1 1 }'));
ENDSEC;

DATA;
#10=MECHANICAL_DESIGN_GEOMETRIC_PRESENTATION_REPRESENTATION('',(#13),#415);
#11=SHAPE_REPRESENTATION_RELATIONSHIP('SRR','None',#422,#12);
#12=ADVANCED_BREP_SHAPE_REPRESENTATION('',(#14),#414);
#13=STYLED_ITEM('',(#431),#14);
#14=MANIFOLD_SOLID_BREP('Volumenk\X\F6rper1',#218);
#15=TOROIDAL_SURFACE('',#263,31.,1.);
#16=FACE_BOUND('',#46,.T.);
#17=FACE_BOUND('',#49,.T.);
#18=FACE_BOUND('',#52,.T.);
#19=FACE_BOUND('',#59,.T.);
#20=PLANE('',#248);
#21=PLANE('',#252);
#22=PLANE('',#256);
#23=PLANE('',#271);
#24=CYLINDRICAL_SURFACE('',#245,22.2);
#25=CYLINDRICAL_SURFACE('',#254,27.);
#26=CYLINDRICAL_SURFACE('',#260,31.);
#27=CYLINDRICAL_SURFACE('',#267,31.);
#28=CYLINDRICAL_SURFACE('',#273,27.);
#29=FACE_OUTER_BOUND('',#43,.T.);
#30=FACE_OUTER_BOUND('',#44,.T.);
#31=FACE_OUTER_BOUND('',#45,.T.);
#32=FACE_OUTER_BOUND('',#47,.T.);
#33=FACE_OUTER_BOUND('',#48,.T.);
#34=FACE_OUTER_BOUND('',#50,.T.);
#35=FACE_OUTER_BOUND('',#51,.T.);
#36=FACE_OUTER_BOUND('',#53,.T.);
#37=FACE_OUTER_BOUND('',#54,.T.);
#38=FACE_OUTER_BOUND('',#55,.T.);
#39=FACE_OUTER_BOUND('',#56,.T.);
#40=FACE_OUTER_BOUND('',#57,.T.);
#41=FACE_OUTER_BOUND('',#58,.T.);
#42=FACE_OUTER_BOUND('',#60,.T.);
#43=EDGE_LOOP('',(#144,#145,#146,#147,#148));
#44=EDGE_LOOP('',(#149,#150,#151,#152,#153,#154));
#45=EDGE_LOOP('',(#155));
#46=EDGE_LOOP('',(#156));
#47=EDGE_LOOP('',(#157,#158,#159,#160,#161));
#48=EDGE_LOOP('',(#162));
#49=EDGE_LOOP('',(#163));
#50=EDGE_LOOP('',(#164,#165,#166,#167));
#51=EDGE_LOOP('',(#168));
#52=EDGE_LOOP('',(#169));
#53=EDGE_LOOP('',(#170,#171,#172,#173));
#54=EDGE_LOOP('',(#174,#175,#176,#177,#178));
#55=EDGE_LOOP('',(#179,#180,#181,#182,#183,#184));
#56=EDGE_LOOP('',(#185,#186,#187,#188,#189));
#57=EDGE_LOOP('',(#190,#191,#192,#193));
#58=EDGE_LOOP('',(#194));
#59=EDGE_LOOP('',(#195));
#60=EDGE_LOOP('',(#196,#197,#198,#199));
#61=LINE('',#356,#70);
#62=LINE('',#365,#71);
#63=LINE('',#371,#72);
#64=LINE('',#378,#73);
#65=LINE('',#386,#74);
#66=LINE('',#391,#75);
#67=LINE('',#402,#76);
#68=LINE('',#406,#77);
#69=LINE('',#411,#78);
#70=VECTOR('',#280,22.3154700538379);
#71=VECTOR('',#291,22.2);
#72=VECTOR('',#298,22.3154700538379);
#73=VECTOR('',#307,27.);
#74=VECTOR('',#318,30.6832420336423);
#75=VECTOR('',#323,31.);
#76=VECTOR('',#338,31.);
#77=VECTOR('',#343,30.6832420336423);
#78=VECTOR('',#350,27.);
#79=CIRCLE('',#242,22.4309401076759);
#80=CIRCLE('',#243,22.2);
#81=CIRCLE('',#244,22.2);
#82=CIRCLE('',#246,22.2);
#83=CIRCLE('',#247,22.2);
#84=CIRCLE('',#249,27.);
#85=CIRCLE('',#251,22.4309401076759);
#86=CIRCLE('',#253,27.);
#87=CIRCLE('',#255,27.);
#88=CIRCLE('',#257,30.3664840672846);
#89=CIRCLE('',#259,31.);
#90=CIRCLE('',#261,31.);
#91=CIRCLE('',#262,31.);
#92=CIRCLE('',#264,1.);
#93=CIRCLE('',#265,31.);
#94=CIRCLE('',#266,31.);
#95=CIRCLE('',#268,31.);
#96=CIRCLE('',#270,30.3664840672846);
#97=CIRCLE('',#272,27.);
#98=VERTEX_POINT('',#353);
#99=VERTEX_POINT('',#355);
#100=VERTEX_POINT('',#357);
#101=VERTEX_POINT('',#361);
#102=VERTEX_POINT('',#362);
#103=VERTEX_POINT('',#367);
#104=VERTEX_POINT('',#370);
#105=VERTEX_POINT('',#374);
#106=VERTEX_POINT('',#377);
#107=VERTEX_POINT('',#381);
#108=VERTEX_POINT('',#384);
#109=VERTEX_POINT('',#388);
#110=VERTEX_POINT('',#389);
#111=VERTEX_POINT('',#394);
#112=VERTEX_POINT('',#396);
#113=VERTEX_POINT('',#400);
#114=VERTEX_POINT('',#404);
#115=VERTEX_POINT('',#408);
#116=EDGE_CURVE('',#98,#98,#79,.T.);
#117=EDGE_CURVE('',#98,#99,#61,.T.);
#118=EDGE_CURVE('',#99,#100,#80,.T.);
#119=EDGE_CURVE('',#100,#99,#81,.T.);
#120=EDGE_CURVE('',#101,#102,#82,.T.);
#121=EDGE_CURVE('',#102,#101,#83,.T.);
#122=EDGE_CURVE('',#102,#100,#62,.T.);
#123=EDGE_CURVE('',#103,#103,#84,.T.);
#124=EDGE_CURVE('',#101,#104,#63,.T.);
#125=EDGE_CURVE('',#104,#104,#85,.T.);
#126=EDGE_CURVE('',#105,#105,#86,.T.);
#127=EDGE_CURVE('',#103,#106,#64,.T.);
#128=EDGE_CURVE('',#106,#106,#87,.T.);
#129=EDGE_CURVE('',#107,#107,#88,.T.);
#130=EDGE_CURVE('',#108,#108,#89,.T.);
#131=EDGE_CURVE('',#108,#107,#65,.T.);
#132=EDGE_CURVE('',#109,#110,#90,.T.);
#133=EDGE_CURVE('',#109,#108,#66,.T.);
#134=EDGE_CURVE('',#110,#109,#91,.T.);
#135=EDGE_CURVE('',#110,#111,#92,.T.);
#136=EDGE_CURVE('',#112,#111,#93,.T.);
#137=EDGE_CURVE('',#111,#112,#94,.T.);
#138=EDGE_CURVE('',#113,#113,#95,.T.);
#139=EDGE_CURVE('',#113,#112,#67,.T.);
#140=EDGE_CURVE('',#114,#114,#96,.T.);
#141=EDGE_CURVE('',#114,#113,#68,.T.);
#142=EDGE_CURVE('',#115,#115,#97,.T.);
#143=EDGE_CURVE('',#115,#105,#69,.T.);
#144=ORIENTED_EDGE('',*,*,#116,.T.);
#145=ORIENTED_EDGE('',*,*,#117,.T.);
#146=ORIENTED_EDGE('',*,*,#118,.T.);
#147=ORIENTED_EDGE('',*,*,#119,.T.);
#148=ORIENTED_EDGE('',*,*,#117,.F.);
#149=ORIENTED_EDGE('',*,*,#120,.F.);
#150=ORIENTED_EDGE('',*,*,#121,.F.);
#151=ORIENTED_EDGE('',*,*,#122,.T.);
#152=ORIENTED_EDGE('',*,*,#118,.F.);
#153=ORIENTED_EDGE('',*,*,#119,.F.);
#154=ORIENTED_EDGE('',*,*,#122,.F.);
#155=ORIENTED_EDGE('',*,*,#123,.F.);
#156=ORIENTED_EDGE('',*,*,#116,.F.);
#157=ORIENTED_EDGE('',*,*,#120,.T.);
#158=ORIENTED_EDGE('',*,*,#121,.T.);
#159=ORIENTED_EDGE('',*,*,#124,.T.);
#160=ORIENTED_EDGE('',*,*,#125,.T.);
#161=ORIENTED_EDGE('',*,*,#124,.F.);
#162=ORIENTED_EDGE('',*,*,#126,.T.);
#163=ORIENTED_EDGE('',*,*,#125,.F.);
#164=ORIENTED_EDGE('',*,*,#123,.T.);
#165=ORIENTED_EDGE('',*,*,#127,.T.);
#166=ORIENTED_EDGE('',*,*,#128,.F.);
#167=ORIENTED_EDGE('',*,*,#127,.F.);
#168=ORIENTED_EDGE('',*,*,#129,.F.);
#169=ORIENTED_EDGE('',*,*,#128,.T.);
#170=ORIENTED_EDGE('',*,*,#130,.F.);
#171=ORIENTED_EDGE('',*,*,#131,.T.);
#172=ORIENTED_EDGE('',*,*,#129,.T.);
#173=ORIENTED_EDGE('',*,*,#131,.F.);
#174=ORIENTED_EDGE('',*,*,#132,.F.);
#175=ORIENTED_EDGE('',*,*,#133,.T.);
#176=ORIENTED_EDGE('',*,*,#130,.T.);
#177=ORIENTED_EDGE('',*,*,#133,.F.);
#178=ORIENTED_EDGE('',*,*,#134,.F.);
#179=ORIENTED_EDGE('',*,*,#132,.T.);
#180=ORIENTED_EDGE('',*,*,#135,.T.);
#181=ORIENTED_EDGE('',*,*,#136,.F.);
#182=ORIENTED_EDGE('',*,*,#137,.F.);
#183=ORIENTED_EDGE('',*,*,#135,.F.);
#184=ORIENTED_EDGE('',*,*,#134,.T.);
#185=ORIENTED_EDGE('',*,*,#138,.F.);
#186=ORIENTED_EDGE('',*,*,#139,.T.);
#187=ORIENTED_EDGE('',*,*,#136,.T.);
#188=ORIENTED_EDGE('',*,*,#137,.T.);
#189=ORIENTED_EDGE('',*,*,#139,.F.);
#190=ORIENTED_EDGE('',*,*,#140,.F.);
#191=ORIENTED_EDGE('',*,*,#141,.T.);
#192=ORIENTED_EDGE('',*,*,#138,.T.);
#193=ORIENTED_EDGE('',*,*,#141,.F.);
#194=ORIENTED_EDGE('',*,*,#140,.T.);
#195=ORIENTED_EDGE('',*,*,#142,.F.);
#196=ORIENTED_EDGE('',*,*,#142,.T.);
#197=ORIENTED_EDGE('',*,*,#143,.T.);
#198=ORIENTED_EDGE('',*,*,#126,.F.);
#199=ORIENTED_EDGE('',*,*,#143,.F.);
#200=CONICAL_SURFACE('',#241,22.3154700538379,0.523598775598298);
#201=CONICAL_SURFACE('',#250,22.3154700538379,0.523598775598298);
#202=CONICAL_SURFACE('',#258,30.6832420336423,0.191986217719377);
#203=CONICAL_SURFACE('',#269,30.6832420336423,0.191986217719377);
#204=ADVANCED_FACE('',(#29),#200,.F.);
#205=ADVANCED_FACE('',(#30),#24,.F.);
#206=ADVANCED_FACE('',(#31,#16),#20,.T.);
#207=ADVANCED_FACE('',(#32),#201,.F.);
#208=ADVANCED_FACE('',(#33,#17),#21,.T.);
#209=ADVANCED_FACE('',(#34),#25,.F.);
#210=ADVANCED_FACE('',(#35,#18),#22,.T.);
#211=ADVANCED_FACE('',(#36),#202,.T.);
#212=ADVANCED_FACE('',(#37),#26,.T.);
#213=ADVANCED_FACE('',(#38),#15,.F.);
#214=ADVANCED_FACE('',(#39),#27,.T.);
#215=ADVANCED_FACE('',(#40),#203,.T.);
#216=ADVANCED_FACE('',(#41,#19),#23,.T.);
#217=ADVANCED_FACE('',(#42),#28,.F.);
#218=CLOSED_SHELL('',(#204,#205,#206,#207,#208,#209,#210,#211,#212,#213,
#214,#215,#216,#217));
#219=DERIVED_UNIT_ELEMENT(#222,1.);
#220=DERIVED_UNIT_ELEMENT(#417,-3.);
#221=DIMENSIONAL_EXPONENTS(0.,1.,0.,0.,0.,0.,0.);
#222=(
CONVERSION_BASED_UNIT('gram',#224)
MASS_UNIT()
NAMED_UNIT(#221)
);
#223=(
MASS_UNIT()
NAMED_UNIT(*)
SI_UNIT(.KILO.,.GRAM.)
);
#224=MASS_MEASURE_WITH_UNIT(MASS_MEASURE(0.001),#223);
#225=DERIVED_UNIT((#219,#220));
#226=MEASURE_REPRESENTATION_ITEM('density measure',
POSITIVE_RATIO_MEASURE(8.47),#225);
#227=PROPERTY_DEFINITION_REPRESENTATION(#232,#229);
#228=PROPERTY_DEFINITION_REPRESENTATION(#233,#230);
#229=REPRESENTATION('material name',(#231),#414);
#230=REPRESENTATION('density',(#226),#414);
#231=DESCRIPTIVE_REPRESENTATION_ITEM('Brass, Soft Yellow',
'Brass, Soft Yellow');
#232=PROPERTY_DEFINITION('material property','material name',#424);
#233=PROPERTY_DEFINITION('material property','density of part',#424);
#234=DATE_TIME_ROLE('creation_date');
#235=APPLIED_DATE_AND_TIME_ASSIGNMENT(#236,#234,(#424));
#236=DATE_AND_TIME(#237,#238);
#237=CALENDAR_DATE(2022,8,9);
#238=LOCAL_TIME(0,0,0.,#239);
#239=COORDINATED_UNIVERSAL_TIME_OFFSET(0,0,.BEHIND.);
#240=AXIS2_PLACEMENT_3D('',#351,#274,#275);
#241=AXIS2_PLACEMENT_3D('',#352,#276,#277);
#242=AXIS2_PLACEMENT_3D('',#354,#278,#279);
#243=AXIS2_PLACEMENT_3D('',#358,#281,#282);
#244=AXIS2_PLACEMENT_3D('',#359,#283,#284);
#245=AXIS2_PLACEMENT_3D('',#360,#285,#286);
#246=AXIS2_PLACEMENT_3D('',#363,#287,#288);
#247=AXIS2_PLACEMENT_3D('',#364,#289,#290);
#248=AXIS2_PLACEMENT_3D('',#366,#292,#293);
#249=AXIS2_PLACEMENT_3D('',#368,#294,#295);
#250=AXIS2_PLACEMENT_3D('',#369,#296,#297);
#251=AXIS2_PLACEMENT_3D('',#372,#299,#300);
#252=AXIS2_PLACEMENT_3D('',#373,#301,#302);
#253=AXIS2_PLACEMENT_3D('',#375,#303,#304);
#254=AXIS2_PLACEMENT_3D('',#376,#305,#306);
#255=AXIS2_PLACEMENT_3D('',#379,#308,#309);
#256=AXIS2_PLACEMENT_3D('',#380,#310,#311);
#257=AXIS2_PLACEMENT_3D('',#382,#312,#313);
#258=AXIS2_PLACEMENT_3D('',#383,#314,#315);
#259=AXIS2_PLACEMENT_3D('',#385,#316,#317);
#260=AXIS2_PLACEMENT_3D('',#387,#319,#320);
#261=AXIS2_PLACEMENT_3D('',#390,#321,#322);
#262=AXIS2_PLACEMENT_3D('',#392,#324,#325);
#263=AXIS2_PLACEMENT_3D('',#393,#326,#327);
#264=AXIS2_PLACEMENT_3D('',#395,#328,#329);
#265=AXIS2_PLACEMENT_3D('',#397,#330,#331);
#266=AXIS2_PLACEMENT_3D('',#398,#332,#333);
#267=AXIS2_PLACEMENT_3D('',#399,#334,#335);
#268=AXIS2_PLACEMENT_3D('',#401,#336,#337);
#269=AXIS2_PLACEMENT_3D('',#403,#339,#340);
#270=AXIS2_PLACEMENT_3D('',#405,#341,#342);
#271=AXIS2_PLACEMENT_3D('',#407,#344,#345);
#272=AXIS2_PLACEMENT_3D('',#409,#346,#347);
#273=AXIS2_PLACEMENT_3D('',#410,#348,#349);
#274=DIRECTION('axis',(0.,0.,1.));
#275=DIRECTION('refdir',(1.,0.,0.));
#276=DIRECTION('center_axis',(-1.,0.,0.));
#277=DIRECTION('ref_axis',(0.,-1.,0.));
#278=DIRECTION('center_axis',(-1.,0.,0.));
#279=DIRECTION('ref_axis',(0.,-1.,0.));
#280=DIRECTION('',(0.866025403784439,-0.5,6.12323399573676E-17));
#281=DIRECTION('center_axis',(1.,0.,0.));
#282=DIRECTION('ref_axis',(0.,-1.,0.));
#283=DIRECTION('center_axis',(1.,0.,0.));
#284=DIRECTION('ref_axis',(0.,-1.,0.));
#285=DIRECTION('center_axis',(1.,0.,0.));
#286=DIRECTION('ref_axis',(0.,1.,0.));
#287=DIRECTION('center_axis',(-1.,0.,0.));
#288=DIRECTION('ref_axis',(0.,-1.,0.));
#289=DIRECTION('center_axis',(-1.,0.,0.));
#290=DIRECTION('ref_axis',(0.,-1.,0.));
#291=DIRECTION('',(-1.,0.,0.));
#292=DIRECTION('center_axis',(-1.,0.,0.));
#293=DIRECTION('ref_axis',(0.,0.,1.));
#294=DIRECTION('center_axis',(1.,0.,0.));
#295=DIRECTION('ref_axis',(0.,0.,-1.));
#296=DIRECTION('center_axis',(1.,0.,0.));
#297=DIRECTION('ref_axis',(0.,-1.,0.));
#298=DIRECTION('',(0.866025403784439,0.499999999999999,-6.12323399573675E-17));
#299=DIRECTION('center_axis',(1.,0.,0.));
#300=DIRECTION('ref_axis',(0.,-1.,0.));
#301=DIRECTION('center_axis',(1.,0.,0.));
#302=DIRECTION('ref_axis',(0.,0.,-1.));
#303=DIRECTION('center_axis',(1.,0.,0.));
#304=DIRECTION('ref_axis',(0.,0.,-1.));
#305=DIRECTION('center_axis',(1.,0.,0.));
#306=DIRECTION('ref_axis',(0.,1.,0.));
#307=DIRECTION('',(-1.,0.,0.));
#308=DIRECTION('center_axis',(1.,0.,0.));
#309=DIRECTION('ref_axis',(0.,0.,-1.));
#310=DIRECTION('center_axis',(-1.,0.,0.));
#311=DIRECTION('ref_axis',(0.,0.,1.));
#312=DIRECTION('center_axis',(1.,0.,0.));
#313=DIRECTION('ref_axis',(0.,0.,-1.));
#314=DIRECTION('center_axis',(1.,0.,0.));
#315=DIRECTION('ref_axis',(0.,1.,0.));
#316=DIRECTION('center_axis',(1.,0.,0.));
#317=DIRECTION('ref_axis',(0.,0.,-1.));
#318=DIRECTION('',(-0.981627183447664,0.190808995376545,2.33673625436408E-17));
#319=DIRECTION('center_axis',(1.,0.,0.));
#320=DIRECTION('ref_axis',(0.,1.,0.));
#321=DIRECTION('center_axis',(1.,0.,0.));
#322=DIRECTION('ref_axis',(0.,0.,-1.));
#323=DIRECTION('',(-1.,0.,0.));
#324=DIRECTION('center_axis',(1.,0.,0.));
#325=DIRECTION('ref_axis',(0.,0.,-1.));
#326=DIRECTION('center_axis',(1.,0.,0.));
#327=DIRECTION('ref_axis',(0.,0.,-1.));
#328=DIRECTION('center_axis',(0.,-1.,-1.22464679914735E-16));
#329=DIRECTION('ref_axis',(0.,-1.22464679914735E-16,1.));
#330=DIRECTION('center_axis',(1.,0.,0.));
#331=DIRECTION('ref_axis',(0.,0.,-1.));
#332=DIRECTION('center_axis',(1.,0.,0.));
#333=DIRECTION('ref_axis',(0.,0.,-1.));
#334=DIRECTION('center_axis',(1.,0.,0.));
#335=DIRECTION('ref_axis',(0.,1.,0.));
#336=DIRECTION('center_axis',(1.,0.,0.));
#337=DIRECTION('ref_axis',(0.,0.,-1.));
#338=DIRECTION('',(-1.,0.,0.));
#339=DIRECTION('center_axis',(-1.,0.,0.));
#340=DIRECTION('ref_axis',(0.,1.,0.));
#341=DIRECTION('center_axis',(1.,0.,0.));
#342=DIRECTION('ref_axis',(0.,0.,-1.));
#343=DIRECTION('',(-0.981627183447664,-0.190808995376545,-2.33673625436408E-17));
#344=DIRECTION('center_axis',(1.,0.,0.));
#345=DIRECTION('ref_axis',(0.,0.,-1.));
#346=DIRECTION('center_axis',(1.,0.,0.));
#347=DIRECTION('ref_axis',(0.,0.,-1.));
#348=DIRECTION('center_axis',(1.,0.,0.));
#349=DIRECTION('ref_axis',(0.,1.,0.));
#350=DIRECTION('',(-1.,0.,0.));
#351=CARTESIAN_POINT('',(0.,0.,0.));
#352=CARTESIAN_POINT('Origin',(-1.3,0.,0.));
#353=CARTESIAN_POINT('',(-1.5,22.4309401076759,-2.74699790047312E-15));
#354=CARTESIAN_POINT('Origin',(-1.5,0.,0.));
#355=CARTESIAN_POINT('',(-1.1,22.2,2.71871589410712E-15));
#356=CARTESIAN_POINT('',(-1.3,22.3154700538379,-2.73285689729012E-15));
#357=CARTESIAN_POINT('',(-1.1,-22.2,-2.71871589410712E-15));
#358=CARTESIAN_POINT('Origin',(-1.1,0.,0.));
#359=CARTESIAN_POINT('Origin',(-1.1,0.,0.));
#360=CARTESIAN_POINT('Origin',(0.,0.,0.));
#361=CARTESIAN_POINT('',(1.1,22.2,-2.71871589410712E-15));
#362=CARTESIAN_POINT('',(1.1,-22.2,-2.71871589410712E-15));
#363=CARTESIAN_POINT('Origin',(1.1,0.,0.));
#364=CARTESIAN_POINT('Origin',(1.1,0.,0.));
#365=CARTESIAN_POINT('',(0.,-22.2,-2.71871589410712E-15));
#366=CARTESIAN_POINT('Origin',(-1.5,27.,0.));
#367=CARTESIAN_POINT('',(-1.5,-27.,-3.30654635769785E-15));
#368=CARTESIAN_POINT('Origin',(-1.5,0.,0.));
#369=CARTESIAN_POINT('Origin',(1.3,0.,0.));
#370=CARTESIAN_POINT('',(1.5,22.4309401076759,2.74699790047312E-15));
#371=CARTESIAN_POINT('',(1.3,22.3154700538379,-2.73285689729012E-15));
#372=CARTESIAN_POINT('Origin',(1.5,0.,0.));
#373=CARTESIAN_POINT('Origin',(1.5,22.2,0.));
#374=CARTESIAN_POINT('',(1.5,-27.,-3.30654635769785E-15));
#375=CARTESIAN_POINT('Origin',(1.5,0.,0.));
#376=CARTESIAN_POINT('Origin',(-5.,0.,0.));
#377=CARTESIAN_POINT('',(-8.5,-27.,-3.30654635769785E-15));
#378=CARTESIAN_POINT('',(-5.,-27.,-3.30654635769785E-15));
#379=CARTESIAN_POINT('Origin',(-8.5,0.,0.));
#380=CARTESIAN_POINT('Origin',(-8.5,30.3664840672846,0.));
#381=CARTESIAN_POINT('',(-8.5,-30.3664840672846,-3.71882175143592E-15));
#382=CARTESIAN_POINT('Origin',(-8.5,0.,0.));
#383=CARTESIAN_POINT('Origin',(-6.87042153208392,0.,0.));
#384=CARTESIAN_POINT('',(-5.24084306416783,-31.,-3.7964050773568E-15));
#385=CARTESIAN_POINT('Origin',(-5.24084306416783,0.,0.));
#386=CARTESIAN_POINT('',(-6.87042153208392,-30.6832420336423,-3.75761341439636E-15));
#387=CARTESIAN_POINT('Origin',(-3.12042153208392,0.,0.));
#388=CARTESIAN_POINT('',(-1.,-31.,-3.7964050773568E-15));
#389=CARTESIAN_POINT('',(-1.,-3.7964050773568E-15,31.));
#390=CARTESIAN_POINT('Origin',(-1.,0.,0.));
#391=CARTESIAN_POINT('',(-3.12042153208392,-31.,-3.7964050773568E-15));
#392=CARTESIAN_POINT('Origin',(-1.,0.,0.));
#393=CARTESIAN_POINT('Origin',(0.,0.,0.));
#394=CARTESIAN_POINT('',(1.,-3.7964050773568E-15,31.));
#395=CARTESIAN_POINT('Origin',(0.,-3.7964050773568E-15,31.));
#396=CARTESIAN_POINT('',(1.,-31.,-3.7964050773568E-15));
#397=CARTESIAN_POINT('Origin',(1.,0.,0.));
#398=CARTESIAN_POINT('Origin',(1.,0.,0.));
#399=CARTESIAN_POINT('Origin',(3.12042153208392,0.,0.));
#400=CARTESIAN_POINT('',(5.24084306416783,-31.,-3.7964050773568E-15));
#401=CARTESIAN_POINT('Origin',(5.24084306416783,0.,0.));
#402=CARTESIAN_POINT('',(3.12042153208392,-31.,-3.7964050773568E-15));
#403=CARTESIAN_POINT('Origin',(6.87042153208392,0.,0.));
#404=CARTESIAN_POINT('',(8.5,-30.3664840672846,-3.71882175143592E-15));
#405=CARTESIAN_POINT('Origin',(8.5,0.,0.));
#406=CARTESIAN_POINT('',(6.87042153208392,-30.6832420336423,-3.75761341439636E-15));
#407=CARTESIAN_POINT('Origin',(8.5,27.,0.));
#408=CARTESIAN_POINT('',(8.5,-27.,-3.30654635769785E-15));
#409=CARTESIAN_POINT('Origin',(8.5,0.,0.));
#410=CARTESIAN_POINT('Origin',(5.,0.,0.));
#411=CARTESIAN_POINT('',(5.,-27.,-3.30654635769785E-15));
#412=UNCERTAINTY_MEASURE_WITH_UNIT(LENGTH_MEASURE(0.01),#416,
'DISTANCE_ACCURACY_VALUE',
'Maximum model space distance between geometric entities at asserted c
onnectivities');
#413=UNCERTAINTY_MEASURE_WITH_UNIT(LENGTH_MEASURE(0.01),#416,
'DISTANCE_ACCURACY_VALUE',
'Maximum model space distance between geometric entities at asserted c
onnectivities');
#414=(
GEOMETRIC_REPRESENTATION_CONTEXT(3)
GLOBAL_UNCERTAINTY_ASSIGNED_CONTEXT((#412))
GLOBAL_UNIT_ASSIGNED_CONTEXT((#416,#418,#419))
REPRESENTATION_CONTEXT('','3D')
);
#415=(
GEOMETRIC_REPRESENTATION_CONTEXT(3)
GLOBAL_UNCERTAINTY_ASSIGNED_CONTEXT((#413))
GLOBAL_UNIT_ASSIGNED_CONTEXT((#416,#418,#419))
REPRESENTATION_CONTEXT('','3D')
);
#416=(
LENGTH_UNIT()
NAMED_UNIT(*)
SI_UNIT(.MILLI.,.METRE.)
);
#417=(
LENGTH_UNIT()
NAMED_UNIT(*)
SI_UNIT(.CENTI.,.METRE.)
);
#418=(
NAMED_UNIT(*)
PLANE_ANGLE_UNIT()
SI_UNIT($,.RADIAN.)
);
#419=(
NAMED_UNIT(*)
SI_UNIT($,.STERADIAN.)
SOLID_ANGLE_UNIT()
);
#420=SHAPE_DEFINITION_REPRESENTATION(#421,#422);
#421=PRODUCT_DEFINITION_SHAPE('',$,#424);
#422=SHAPE_REPRESENTATION('',(#240),#414);
#423=PRODUCT_DEFINITION_CONTEXT('part definition',#428,'design');
#424=PRODUCT_DEFINITION('reactionwheel','reactionwheel',#425,#423);
#425=PRODUCT_DEFINITION_FORMATION('',$,#430);
#426=PRODUCT_RELATED_PRODUCT_CATEGORY('reactionwheel','reactionwheel',(#430));
#427=APPLICATION_PROTOCOL_DEFINITION('international standard',
'automotive_design',2009,#428);
#428=APPLICATION_CONTEXT(
'Core Data for Automotive Mechanical Design Process');
#429=PRODUCT_CONTEXT('part definition',#428,'mechanical');
#430=PRODUCT('reactionwheel','reactionwheel',$,(#429));
#431=PRESENTATION_STYLE_ASSIGNMENT((#432));
#432=SURFACE_STYLE_USAGE(.BOTH.,#435);
#433=SURFACE_STYLE_RENDERING_WITH_PROPERTIES($,#439,(#434));
#434=SURFACE_STYLE_TRANSPARENT(0.);
#435=SURFACE_SIDE_STYLE('',(#436,#433));
#436=SURFACE_STYLE_FILL_AREA(#437);
#437=FILL_AREA_STYLE('',(#438));
#438=FILL_AREA_STYLE_COLOUR('',#439);
#439=COLOUR_RGB('',0.796078431372549,0.603921568627451,0.231372549019608);
ENDSEC;
END-ISO-10303-21;
